<svg width="16" height="16" viewBox="0 0 17 16" fill="none" xmlns="http://www.w3.org/2000/svg">
<path d="M8.49785 3.89571C6.22636 3.89571 4.39315 5.72895 4.39315 8.00049C4.39315 10.272 6.22636 12.1053 8.49785 12.1053C10.7693 12.1053 12.6025 10.272 12.6025 8.00049C12.6025 5.72895 10.7693 3.89571 8.49785 3.89571ZM8.49785 10.6683C7.02888 10.6683 5.8301 9.46948 5.8301 8.00049C5.8301 6.5315 7.02888 5.33269 8.49785 5.33269C9.96681 5.33269 11.1656 6.5315 11.1656 8.00049C11.1656 9.46948 9.96681 10.6683 8.49785 10.6683ZM12.7707 2.77095C12.2403 2.77095 11.812 3.19924 11.812 3.7296C11.812 4.25996 12.2403 4.68825 12.7707 4.68825C13.301 4.68825 13.7293 4.26196 13.7293 3.7296C13.7294 3.60367 13.7048 3.47894 13.6566 3.36256C13.6085 3.24618 13.5379 3.14043 13.4489 3.05138C13.3598 2.96233 13.2541 2.89173 13.1377 2.84361C13.0213 2.79549 12.8966 2.7708 12.7707 2.77095ZM16.4991 8.00049C16.4991 6.89574 16.5091 5.801 16.4471 4.69826C16.385 3.41739 16.0928 2.28062 15.1562 1.34399C14.2176 0.405357 13.0829 0.115161 11.802 0.0531187C10.6973 -0.00892322 9.60258 0.00108357 8.49985 0.00108357C7.39512 0.00108357 6.30041 -0.00892322 5.19768 0.0531187C3.91684 0.115161 2.78009 0.407358 1.84348 1.34399C0.904861 2.28262 0.61467 3.41739 0.552629 4.69826C0.490589 5.803 0.500595 6.89774 0.500595 8.00049C0.500595 9.10323 0.490589 10.2 0.552629 11.3027C0.61467 12.5836 0.906862 13.7204 1.84348 14.657C2.78209 15.5956 3.91684 15.8858 5.19768 15.9479C6.30241 16.0099 7.39713 15.9999 8.49985 15.9999C9.60458 15.9999 10.6993 16.0099 11.802 15.9479C13.0829 15.8858 14.2196 15.5936 15.1562 14.657C16.0948 13.7184 16.385 12.5836 16.4471 11.3027C16.5111 10.2 16.4991 9.10524 16.4991 8.00049ZM14.738 12.7197C14.5919 13.0839 14.4157 13.3561 14.1336 13.6363C13.8514 13.9185 13.5812 14.0946 13.217 14.2407C12.1643 14.659 9.66462 14.5649 8.49785 14.5649C7.33108 14.5649 4.82944 14.659 3.77675 14.2427C3.41251 14.0966 3.14033 13.9205 2.86015 13.6383C2.57796 13.3561 2.40184 13.0859 2.25575 12.7217C1.83948 11.667 1.93354 9.16728 1.93354 8.00049C1.93354 6.8337 1.83948 4.33201 2.25575 3.2793C2.40184 2.91505 2.57796 2.64287 2.86015 2.36268C3.14233 2.08249 3.41251 1.90437 3.77675 1.75827C4.82944 1.34199 7.33108 1.43605 8.49785 1.43605C9.66462 1.43605 12.1663 1.34199 13.219 1.75827C13.5832 1.90437 13.8554 2.08049 14.1356 2.36268C14.4177 2.64487 14.5939 2.91505 14.74 3.2793C15.1562 4.33201 15.0622 6.8337 15.0622 8.00049C15.0622 9.16728 15.1562 11.667 14.738 12.7197Z" fill="url(#paint0_linear)"/>
<defs>
<linearGradient id="paint0_linear" x1="0.5" y1="8.00049" x2="16.5" y2="8.00049" gradientUnits="userSpaceOnUse">
<stop stop-color="#4776E6"/>
<stop offset="1" stop-color="#8E54E9"/>
</linearGradient>
</defs>
</svg>
