<svg width="12" height="12" viewBox="0 0 12 12" fill="none" xmlns="http://www.w3.org/2000/svg">
<path d="M1.18359 10.8125V10.1143C1.18359 9.93522 1.27669 9.80273 1.46289 9.7168L4.48145 8.28809C4.71777 8.18066 4.85026 8.00163 4.87891 7.75098C4.90755 7.50033 4.8252 7.29264 4.63184 7.12793C4.30241 6.87012 4.0446 6.48698 3.8584 5.97852C3.6722 5.47005 3.5791 5.01888 3.5791 4.625V2.90625C3.5791 2.79167 3.61312 2.66634 3.68115 2.53027C3.74919 2.39421 3.8387 2.26351 3.94971 2.13818C4.06071 2.01286 4.19499 1.8929 4.35254 1.77832C4.51009 1.66374 4.6766 1.56348 4.85205 1.47754C5.02751 1.3916 5.2137 1.32178 5.41064 1.26807C5.60758 1.21436 5.79915 1.1875 5.98535 1.1875C6.35775 1.1875 6.73551 1.2806 7.11865 1.4668C7.50179 1.65299 7.80973 1.87858 8.04248 2.14355C8.27523 2.40853 8.3916 2.66276 8.3916 2.90625V4.625C8.3916 5.0332 8.30566 5.48796 8.13379 5.98926C7.96191 6.49056 7.71126 6.87012 7.38184 7.12793C7.31738 7.17806 7.26546 7.23714 7.22607 7.30518C7.18669 7.37321 7.15804 7.44482 7.14014 7.52002C7.12223 7.59521 7.11686 7.6722 7.12402 7.75098C7.13835 7.87272 7.18131 7.98193 7.25293 8.07861C7.32454 8.17529 7.41406 8.2487 7.52148 8.29883L9.26172 9.12598L9.66992 8.5459L7.81152 7.67578C8.24121 7.33203 8.5599 6.86475 8.76758 6.27393C8.97526 5.68311 9.0791 5.13346 9.0791 4.625V2.90625C9.0791 2.53385 8.92871 2.16146 8.62793 1.78906C8.32715 1.41667 7.93506 1.10872 7.45166 0.865234C6.96826 0.621745 6.48128 0.5 5.99072 0.5C5.50016 0.5 5.01139 0.621745 4.52441 0.865234C4.03743 1.10872 3.64355 1.41667 3.34277 1.78906C3.04199 2.16146 2.8916 2.53385 2.8916 2.90625V4.625C2.8916 5.09766 3.00081 5.63656 3.21924 6.2417C3.43766 6.84684 3.76172 7.32129 4.19141 7.66504L1.17285 9.09375C1.16569 9.09375 1.15495 9.09912 1.14062 9.10986C1.1263 9.12061 1.09408 9.13851 1.04395 9.16357C0.993815 9.18864 0.947266 9.2155 0.904297 9.24414C0.861328 9.27279 0.812988 9.30859 0.759277 9.35156C0.705566 9.39453 0.660807 9.4375 0.625 9.48047C0.589193 9.52344 0.558757 9.56999 0.533691 9.62012C0.508626 9.67025 0.496094 9.72396 0.496094 9.78125V10.8125C0.496094 10.9987 0.562337 11.1598 0.694824 11.2959C0.827311 11.432 0.986654 11.5 1.17285 11.5H8.04785L7.48926 10.8125H1.18359ZM11.3672 8.27734C11.3385 8.2487 11.3063 8.229 11.2705 8.21826C11.2347 8.20752 11.2007 8.20215 11.1685 8.20215C11.1362 8.20215 11.1022 8.20573 11.0664 8.21289C11.0306 8.22005 10.9984 8.23438 10.9697 8.25586C10.9411 8.27734 10.9124 8.30241 10.8838 8.33105L9.41211 10.5762L8.49902 9.66309C8.43457 9.59147 8.35579 9.55566 8.2627 9.55566C8.1696 9.55566 8.08724 9.59147 8.01562 9.66309C7.98698 9.68457 7.96549 9.71143 7.95117 9.74365C7.93685 9.77588 7.92611 9.8099 7.91895 9.8457C7.91178 9.88151 7.91178 9.91732 7.91895 9.95312C7.92611 9.98893 7.93685 10.0229 7.95117 10.0552C7.96549 10.0874 7.98698 10.1178 8.01562 10.1465L9.22949 11.3604C9.30111 11.4248 9.38346 11.457 9.47656 11.457C9.56966 11.457 9.65202 11.4248 9.72363 11.3604C9.75228 11.3317 9.77376 11.2959 9.78809 11.2529L11.4316 8.75C11.4889 8.67839 11.5122 8.59603 11.5015 8.50293C11.4907 8.40983 11.446 8.33464 11.3672 8.27734Z" fill="#65A30D"/>
</svg>
