<svg width="12" height="12" viewBox="0 0 12 12" fill="none" xmlns="http://www.w3.org/2000/svg">
<path d="M9.08789 4.625V2.90625C9.08789 2.53385 8.9375 2.15967 8.63672 1.78369C8.33594 1.40771 7.94385 1.09977 7.46045 0.859863C6.97705 0.619954 6.49007 0.5 5.99951 0.5C5.50895 0.5 5.02018 0.619954 4.5332 0.859863C4.04622 1.09977 3.65234 1.40771 3.35156 1.78369C3.05078 2.15967 2.90039 2.53385 2.90039 2.90625V4.625C2.90039 5.09766 3.0096 5.63477 3.22803 6.23633C3.44645 6.83789 3.77051 7.31413 4.2002 7.66504L1.18164 9.09375C1.16732 9.10091 1.14404 9.11165 1.11182 9.12598C1.07959 9.1403 1.02409 9.17253 0.945312 9.22266C0.866536 9.27279 0.796712 9.32292 0.73584 9.37305C0.674967 9.42318 0.619466 9.48584 0.569336 9.56104C0.519206 9.63623 0.494141 9.70964 0.494141 9.78125V10.8125C0.494141 10.9987 0.562174 11.1598 0.698242 11.2959C0.83431 11.432 0.995443 11.5 1.18164 11.5H7.71289V10.8125H1.18164V10.1143C1.18164 9.93522 1.27832 9.80273 1.47168 9.7168L4.49023 8.28809C4.59766 8.23796 4.68717 8.16455 4.75879 8.06787C4.8304 7.97119 4.87337 7.86556 4.8877 7.75098C4.89486 7.69369 4.89486 7.6346 4.8877 7.57373C4.88053 7.51286 4.86621 7.45557 4.84473 7.40186C4.82324 7.34814 4.7946 7.29801 4.75879 7.25146C4.72298 7.20492 4.68359 7.16374 4.64062 7.12793C4.3112 6.86296 4.05339 6.47803 3.86719 5.97314C3.68099 5.46826 3.58789 5.01888 3.58789 4.625V2.90625C3.58789 2.66992 3.70605 2.41748 3.94238 2.14893C4.17871 1.88037 4.48844 1.65299 4.87158 1.4668C5.25472 1.2806 5.62891 1.1875 5.99414 1.1875C6.36654 1.1875 6.7443 1.27881 7.12744 1.46143C7.51058 1.64404 7.81852 1.86963 8.05127 2.13818C8.28402 2.40674 8.40039 2.66276 8.40039 2.90625V4.625C8.40039 5.0332 8.31445 5.48796 8.14258 5.98926C7.9707 6.49056 7.72005 6.87012 7.39062 7.12793C7.1901 7.28548 7.10417 7.49316 7.13281 7.75098C7.14714 7.87272 7.1901 7.98193 7.26172 8.07861C7.33333 8.17529 7.42285 8.2487 7.53027 8.29883L7.72363 8.38477L8.02441 7.82617L7.80957 7.66504C8.24642 7.32845 8.56868 6.86475 8.77637 6.27393C8.98405 5.68311 9.08789 5.13346 9.08789 4.625ZM10.4414 9.94238L11.4082 8.96484C11.4727 8.90039 11.5049 8.81982 11.5049 8.72314C11.5049 8.62646 11.4727 8.5459 11.4082 8.48145C11.3438 8.41699 11.2632 8.38477 11.1665 8.38477C11.0698 8.38477 10.9893 8.41699 10.9248 8.48145L9.94727 9.45898L8.98047 8.48145C8.91602 8.41699 8.83545 8.38477 8.73877 8.38477C8.64209 8.38477 8.55973 8.41699 8.4917 8.48145C8.42367 8.5459 8.38965 8.62646 8.38965 8.72314C8.38965 8.81982 8.42546 8.90039 8.49707 8.96484L9.46387 9.94238L8.49707 10.9092C8.42546 10.9808 8.38965 11.0632 8.38965 11.1562C8.38965 11.2493 8.42367 11.3299 8.4917 11.3979C8.55973 11.466 8.64209 11.5 8.73877 11.5C8.83545 11.5 8.91602 11.4678 8.98047 11.4033L9.94727 10.4258L10.9248 11.4033C10.9893 11.4678 11.0698 11.5 11.1665 11.5C11.2632 11.5 11.3438 11.466 11.4082 11.3979C11.4727 11.3299 11.5049 11.2493 11.5049 11.1562C11.5049 11.0632 11.4727 10.9808 11.4082 10.9092L10.4414 9.94238Z" fill="#6B7280"/>
</svg>
