<svg width="14" height="12" viewBox="0 0 14 12" fill="none" xmlns="http://www.w3.org/2000/svg">
<path d="M13.7529 6.3289L7.82011 0.726948C7.74114 0.653712 7.64759 0.595959 7.54487 0.557019C7.44215 0.518079 7.33227 0.498723 7.22159 0.500065H6.30852L13.1369 6.87342L8.53659 11.2543C8.61489 11.3283 8.70786 11.387 8.81018 11.427C8.9125 11.467 9.02218 11.4876 9.13293 11.4876C9.24369 11.4876 9.35336 11.467 9.45568 11.427C9.558 11.387 9.65097 11.3283 9.72927 11.2543L13.7529 7.45506C13.8312 7.38113 13.8934 7.29334 13.9358 7.19673C13.9782 7.10011 14 6.99656 14 6.89198C14 6.7874 13.9782 6.68384 13.9358 6.58723C13.8934 6.49061 13.8312 6.40283 13.7529 6.3289Z" fill="#A855F7"/>
<path d="M2.67806 3.58155C2.99897 3.58155 3.25911 3.33591 3.25911 3.0329C3.25911 2.7299 2.99897 2.48426 2.67806 2.48426C2.35716 2.48426 2.09701 2.7299 2.09701 3.0329C2.09701 3.33591 2.35716 3.58155 2.67806 3.58155Z" fill="#A855F7"/>
<path d="M11.4025 6.3454L5.46971 0.739324C5.39182 0.663852 5.29876 0.603816 5.19599 0.562732C5.09322 0.521648 4.98279 0.500344 4.87119 0.500065H0.843174C0.619551 0.500065 0.405086 0.583945 0.24696 0.733253C0.0888342 0.882561 0 1.08507 0 1.29622V5.0996C0.000302564 5.204 0.0224591 5.30731 0.0651952 5.40359C0.107931 5.49987 0.170404 5.58722 0.24902 5.66062L6.18619 11.2667C6.26449 11.3407 6.35746 11.3993 6.45978 11.4394C6.5621 11.4794 6.67177 11.5 6.78253 11.5C6.89329 11.5 7.00296 11.4794 7.10528 11.4394C7.2076 11.3993 7.30057 11.3407 7.37887 11.2667L11.4025 7.46744C11.5594 7.31829 11.6474 7.11662 11.6474 6.90642C11.6474 6.69622 11.5594 6.49454 11.4025 6.3454ZM6.80656 10.6851L0.878125 5.0996V1.32509H4.85371L10.7865 6.88579L6.80656 10.6851Z" fill="#A855F7"/>
</svg>
