<svg width="17" height="16" viewBox="0 0 17 16" fill="none" xmlns="http://www.w3.org/2000/svg">
<path d="M1.5 13.9844C1.5 13.724 1.64062 13.5312 1.92188 13.4062L6.3125 11.3281C6.46875 11.2552 6.59896 11.1484 6.70312 11.0078C6.80729 10.8672 6.86979 10.7135 6.89062 10.5469C6.93229 10.1719 6.80729 9.86979 6.51562 9.64062C6.04688 9.25521 5.67708 8.69531 5.40625 7.96094C5.13542 7.22656 5 6.57292 5 6V3.5C5 3.33333 5.04688 3.15104 5.14062 2.95312C5.23438 2.75521 5.36198 2.5651 5.52344 2.38281C5.6849 2.20052 5.88021 2.02604 6.10938 1.85938C6.33854 1.69271 6.58073 1.54688 6.83594 1.42188C7.09115 1.29688 7.36458 1.19531 7.65625 1.11719C7.94792 1.03906 8.22917 1 8.5 1C8.77083 1 9.05208 1.03646 9.34375 1.10938C9.63542 1.18229 9.90885 1.28125 10.1641 1.40625C10.4193 1.53125 10.6589 1.67969 10.8828 1.85156C11.1068 2.02344 11.2995 2.20052 11.4609 2.38281C11.6224 2.5651 11.7526 2.7526 11.8516 2.94531C11.9505 3.13802 12 3.32292 12 3.5V6C12 6.59375 11.875 7.25521 11.625 7.98438C11.375 8.71354 11.0052 9.26562 10.5156 9.64062C10.4323 9.71354 10.3594 9.79948 10.2969 9.89844C10.2344 9.9974 10.1901 10.1016 10.1641 10.2109C10.138 10.3203 10.1302 10.4323 10.1406 10.5469C10.1615 10.724 10.224 10.8828 10.3281 11.0234C10.4323 11.1641 10.5625 11.2708 10.7188 11.3438L12.2188 12.0469L12.4688 11.0469L11.1406 10.4375C11.7656 9.9375 12.2318 9.25781 12.5391 8.39844C12.8464 7.53906 13 6.73958 13 6V3.5C13 3.17708 12.9141 2.84375 12.7422 2.5C12.5703 2.15625 12.3359 1.83854 12.0391 1.54688C11.7422 1.25521 11.4062 0.992188 11.0312 0.757812C10.6562 0.523438 10.2474 0.338542 9.80469 0.203125C9.36198 0.0677083 8.92708 0 8.5 0C7.78125 0 7.07031 0.174479 6.36719 0.523438C5.66406 0.872396 5.09375 1.32031 4.65625 1.86719C4.21875 2.41406 4 2.95833 4 3.5V6C4 6.6875 4.15885 7.47135 4.47656 8.35156C4.79427 9.23177 5.26562 9.92188 5.89062 10.4219L1.5 12.5L1 12.7812C0.677083 13.0312 0.510417 13.2708 0.5 13.5V15C0.5 15.2708 0.598958 15.5052 0.796875 15.7031C0.994792 15.901 1.22917 16 1.5 16H12.5V15H1.5V13.9844ZM16 13H14.5V11.5C14.5 11.3646 14.4505 11.2474 14.3516 11.1484C14.2526 11.0495 14.1354 11 14 11C13.9062 11 13.8229 11.0208 13.75 11.0625C13.6771 11.1042 13.6172 11.1641 13.5703 11.2422C13.5234 11.3203 13.5 11.4062 13.5 11.5V13H12C11.9062 13 11.8229 13.0208 11.75 13.0625C11.6771 13.1042 11.6172 13.1641 11.5703 13.2422C11.5234 13.3203 11.5 13.4062 11.5 13.5C11.5 13.6354 11.5495 13.7526 11.6484 13.8516C11.7474 13.9505 11.8646 14 12 14H13.5V15.5C13.5 15.6354 13.5495 15.7526 13.6484 15.8516C13.7474 15.9505 13.8646 16 14 16C14.1354 16 14.2526 15.9505 14.3516 15.8516C14.4505 15.7526 14.5 15.6354 14.5 15.5V14H16C16.1354 14 16.2526 13.9505 16.3516 13.8516C16.4505 13.7526 16.5 13.6354 16.5 13.5C16.5 13.3646 16.4505 13.2474 16.3516 13.1484C16.2526 13.0495 16.1354 13 16 13Z" fill="#4974E6"/>
</svg>
