<svg width="21" height="21" viewBox="0 0 21 21" fill="none" xmlns="http://www.w3.org/2000/svg">
<path d="M20.2294 18.3846L9.51431 8.62946L10.0131 8.12946C10.4064 7.73452 10.642 7.20956 10.6756 6.65319C10.6953 6.64487 10.7146 6.63527 10.7331 6.62444L12.7443 5.36693C12.8757 5.20682 12.9437 5.00405 12.9354 4.79712C12.9271 4.59018 12.8431 4.3935 12.6993 4.24442L9.20056 0.736887C9.05202 0.593065 8.85573 0.508979 8.64914 0.500679C8.44255 0.492378 8.24014 0.560445 8.08055 0.691886L6.82554 2.70941L6.79804 2.76691C6.26053 2.80066 5.73303 3.02191 5.32552 3.43066L3.423 5.33943C3.01425 5.74819 2.79425 6.27694 2.7605 6.8157C2.74073 6.82402 2.72152 6.83362 2.703 6.84445L0.691727 8.10196C0.560369 8.26207 0.492383 8.46484 0.500679 8.67177C0.508974 8.87871 0.592974 9.07539 0.736727 9.22447L4.23551 12.732C4.38405 12.8758 4.58034 12.9599 4.78693 12.9682C4.99352 12.9765 5.19593 12.9084 5.35552 12.777L6.61053 10.7595L6.63928 10.702C7.17679 10.6682 7.70429 10.447 8.1118 10.0382L8.6643 9.48447L18.3931 20.2296C18.6756 20.5408 19.1094 20.5908 19.3594 20.3408L20.3432 19.3546C20.5919 19.1046 20.5419 18.6683 20.2319 18.3858L20.2294 18.3846Z" fill="white"/>
</svg>
