<svg width="20" height="20" viewBox="0 0 20 20" fill="none" xmlns="http://www.w3.org/2000/svg">
<path d="M1.05404 0C0.833023 0 0.621061 0.0877975 0.464781 0.244078C0.308501 0.400358 0.220703 0.61232 0.220703 0.833333C0.220703 1.05435 0.308501 1.26631 0.464781 1.42259C0.621061 1.57887 0.833023 1.66667 1.05404 1.66667H1.46404C1.64499 1.66698 1.82092 1.72618 1.96525 1.83533C2.10958 1.94448 2.21446 2.09764 2.26404 2.27167L4.90737 11.5217C5.05687 12.0437 5.37227 12.5028 5.80587 12.8297C6.23947 13.1565 6.76771 13.3333 7.3107 13.3333H14.9257C15.4254 13.3334 15.9137 13.1837 16.3276 12.9036C16.7414 12.6234 17.0618 12.2257 17.2474 11.7617L19.704 5.61833C19.805 5.36554 19.8426 5.09186 19.8134 4.82122C19.7842 4.55057 19.6891 4.2912 19.5365 4.06576C19.3839 3.84033 19.1785 3.65571 18.938 3.52803C18.6976 3.40035 18.4296 3.33351 18.1574 3.33333H4.3007L3.8657 1.81333C3.71658 1.29129 3.40156 0.831977 2.96827 0.504827C2.53498 0.177678 2.00696 0.000473947 1.46404 0H1.05404ZM6.5107 11.0617L4.77737 5H18.1557L15.699 11.1433C15.6371 11.2978 15.5304 11.4302 15.3926 11.5235C15.2547 11.6168 15.0921 11.6666 14.9257 11.6667H7.3107C7.12975 11.6664 6.95382 11.6071 6.80949 11.498C6.66516 11.3889 6.56028 11.2357 6.5107 11.0617Z" fill="white"/>
<path d="M7.7207 20C8.04901 20 8.3741 19.9353 8.67741 19.8097C8.98073 19.6841 9.25632 19.4999 9.48847 19.2678C9.72062 19.0356 9.90477 18.76 10.0304 18.4567C10.156 18.1534 10.2207 17.8283 10.2207 17.5C10.2207 17.1717 10.156 16.8466 10.0304 16.5433C9.90477 16.24 9.72062 15.9644 9.48847 15.7322C9.25632 15.5001 8.98073 15.3159 8.67741 15.1903C8.3741 15.0647 8.04901 15 7.7207 15C7.05766 15 6.42178 15.2634 5.95294 15.7322C5.48409 16.2011 5.2207 16.837 5.2207 17.5C5.2207 18.163 5.48409 18.7989 5.95294 19.2678C6.42178 19.7366 7.05766 20 7.7207 20ZM7.7207 18.3333C7.49969 18.3333 7.28773 18.2455 7.13145 18.0893C6.97517 17.933 6.88737 17.721 6.88737 17.5C6.88737 17.279 6.97517 17.067 7.13145 16.9107C7.28773 16.7545 7.49969 16.6667 7.7207 16.6667C7.94172 16.6667 8.15368 16.7545 8.30996 16.9107C8.46624 17.067 8.55404 17.279 8.55404 17.5C8.55404 17.721 8.46624 17.933 8.30996 18.0893C8.15368 18.2455 7.94172 18.3333 7.7207 18.3333Z" fill="white"/>
<path d="M14.3874 20C14.7157 20 15.0408 19.9353 15.3441 19.8097C15.6474 19.6841 15.923 19.4999 16.1551 19.2678C16.3873 19.0356 16.5714 18.76 16.6971 18.4567C16.8227 18.1534 16.8874 17.8283 16.8874 17.5C16.8874 17.1717 16.8227 16.8466 16.6971 16.5433C16.5714 16.24 16.3873 15.9644 16.1551 15.7322C15.923 15.5001 15.6474 15.3159 15.3441 15.1903C15.0408 15.0647 14.7157 15 14.3874 15C13.7243 15 13.0884 15.2634 12.6196 15.7322C12.1508 16.2011 11.8874 16.837 11.8874 17.5C11.8874 18.163 12.1508 18.7989 12.6196 19.2678C13.0884 19.7366 13.7243 20 14.3874 20ZM14.3874 18.3333C14.1664 18.3333 13.9544 18.2455 13.7981 18.0893C13.6418 17.933 13.554 17.721 13.554 17.5C13.554 17.279 13.6418 17.067 13.7981 16.9107C13.9544 16.7545 14.1664 16.6667 14.3874 16.6667C14.6084 16.6667 14.8203 16.7545 14.9766 16.9107C15.1329 17.067 15.2207 17.279 15.2207 17.5C15.2207 17.721 15.1329 17.933 14.9766 18.0893C14.8203 18.2455 14.6084 18.3333 14.3874 18.3333Z" fill="white"/>
</svg>
