<svg width="16" height="14" viewBox="0 0 16 14" fill="none" xmlns="http://www.w3.org/2000/svg">
<path d="M1 7.99939H12.86L9.23 12.3594C9.14595 12.4605 9.08265 12.5772 9.0437 12.7028C9.00474 12.8284 8.99091 12.9604 9.00298 13.0913C9.02736 13.3557 9.15578 13.5997 9.36 13.7694C9.56422 13.9391 9.8275 14.0208 10.0919 13.9964C10.3563 13.972 10.6003 13.8436 10.77 13.6394L15.77 7.63939C15.8036 7.59167 15.8337 7.54153 15.86 7.48939C15.86 7.43939 15.91 7.40939 15.93 7.35939C15.9753 7.24473 15.9991 7.12268 16 6.99939C15.9991 6.8761 15.9753 6.75405 15.93 6.63939C15.93 6.58939 15.88 6.55939 15.86 6.50939C15.8337 6.45725 15.8036 6.40712 15.77 6.35939L10.77 0.359392C10.676 0.246509 10.5582 0.155729 10.4252 0.0935078C10.2921 0.0312867 10.1469 -0.000847023 10 -0.000608441C9.76635 -0.00106495 9.53991 0.0803104 9.36 0.229392C9.25874 0.313341 9.17504 0.416441 9.11369 0.532788C9.05234 0.649135 9.01454 0.776443 9.00246 0.90742C8.99039 1.0384 9.00427 1.17047 9.04331 1.29607C9.08236 1.42168 9.1458 1.53834 9.23 1.63939L12.86 5.99939H1C0.734784 5.99939 0.48043 6.10475 0.292893 6.29228C0.105357 6.47982 0 6.73418 0 6.99939C0 7.26461 0.105357 7.51896 0.292893 7.7065C0.48043 7.89403 0.734784 7.99939 1 7.99939Z" fill="white"/>
</svg>
