<svg width="11" height="10" viewBox="0 0 11 10" fill="none" xmlns="http://www.w3.org/2000/svg">
<path d="M9.79316 0.556956C9.4725 0.239999 9.05093 0.0454109 8.6017 0.00701016C8.15247 -0.0313906 7.70399 0.0888233 7.33419 0.34676C8.5229 0.841677 9.49396 1.7476 10.0701 2.89914C10.2925 2.53399 10.386 2.10484 10.3358 1.68026C10.2856 1.25568 10.0946 0.860176 9.79316 0.556956Z" fill="#6B7280"/>
<path d="M3.10358 0.420161C2.73531 0.127681 2.27272 -0.0198839 1.80312 0.00531738C1.33351 0.0305187 0.889377 0.226743 0.554529 0.556956C0.222445 0.891238 0.0257654 1.33655 0.00235797 1.80717C-0.0210495 2.27778 0.13047 2.74042 0.427744 3.106C0.963088 1.9149 1.91448 0.959948 3.10358 0.420161Z" fill="#6B7280"/>
<path d="M4.76513 0.640367C3.89402 0.742128 3.06916 1.08708 2.38495 1.63574C1.70073 2.1844 1.1848 2.91461 0.896208 3.7428C0.607613 4.57099 0.55801 5.46369 0.753075 6.31876C0.948141 7.17382 1.37999 7.95669 1.99921 8.57778L1.14842 9.42857C1.11753 9.46012 1.09315 9.49744 1.07669 9.53841C1.06022 9.57937 1.05199 9.62318 1.05245 9.66733C1.05292 9.71148 1.06207 9.7551 1.0794 9.79571C1.09672 9.83632 1.12187 9.87313 1.15342 9.90401C1.18497 9.9349 1.22229 9.95928 1.26326 9.97574C1.30422 9.99221 1.34803 10.0004 1.39218 9.99998C1.43633 9.99952 1.47995 9.99036 1.52056 9.97303C1.56118 9.95571 1.59798 9.93056 1.62887 9.89901L2.51636 9.01152C3.32796 9.62568 4.31906 9.9558 5.33684 9.95098C6.35462 9.94615 7.34254 9.60665 8.14829 8.98482L9.06247 9.89901C9.1263 9.95367 9.2084 9.98223 9.29237 9.97899C9.37634 9.97575 9.456 9.94094 9.51542 9.88152C9.57484 9.82209 9.60965 9.74244 9.61289 9.65847C9.61613 9.5745 9.58757 9.4924 9.53291 9.42857L8.63541 8.54441C9.30891 7.85451 9.75243 6.97309 9.9051 6.0211C10.0578 5.06912 9.9121 4.09322 9.4881 3.2273C9.0641 2.36139 8.38253 1.6479 7.53693 1.18473C6.69132 0.721562 5.7231 0.53141 4.76513 0.640367ZM5.82612 9.25174C4.99687 9.36035 4.15444 9.20655 3.41706 8.81194C2.67968 8.41733 2.08439 7.80172 1.71474 7.05152C1.34509 6.30132 1.21965 5.45419 1.35602 4.62906C1.49239 3.80392 1.88373 3.04221 2.4751 2.45084C3.06647 1.85946 3.82819 1.46813 4.65332 1.33175C5.47846 1.19538 6.32558 1.32083 7.07578 1.69047C7.82599 2.06012 8.4416 2.65541 8.83621 3.39279C9.23082 4.13017 9.38462 4.97261 9.27601 5.80185C9.16143 6.67665 8.76111 7.48911 8.13724 8.11298C7.51338 8.73684 6.70092 9.13716 5.82612 9.25174Z" fill="#6B7280"/>
<path d="M7.60778 6.0621L5.58589 5.06116V2.44539C5.58589 2.36575 5.55426 2.28937 5.49794 2.23306C5.44163 2.17674 5.36525 2.14511 5.28561 2.14511C5.20597 2.14511 5.1296 2.17674 5.07328 2.23306C5.01697 2.28937 4.98533 2.36575 4.98533 2.44539V5.44819L7.34087 6.61595C7.41254 6.6509 7.49517 6.65595 7.57056 6.62998C7.64596 6.60401 7.70796 6.54916 7.74291 6.47748C7.77786 6.40581 7.78291 6.32318 7.75694 6.24779C7.73098 6.17239 7.67612 6.11039 7.60445 6.07544L7.60778 6.0621Z" fill="#6B7280"/>
</svg>
