<svg width="17" height="16" viewBox="0 0 17 16" fill="none" xmlns="http://www.w3.org/2000/svg">
<path d="M7.64296 8C7.64296 8.22733 7.73326 8.44535 7.89401 8.60609C8.05475 8.76684 8.27277 8.85714 8.5001 8.85714C8.72743 8.85714 8.94545 8.76684 9.10619 8.60609C9.26694 8.44535 9.35724 8.22733 9.35724 8C9.35724 7.77267 9.26694 7.55465 9.10619 7.39391C8.94545 7.23316 8.72743 7.14286 8.5001 7.14286C8.27277 7.14286 8.05475 7.23316 7.89401 7.39391C7.73326 7.55465 7.64296 7.77267 7.64296 8ZM11.2144 8C11.2144 8.22733 11.3047 8.44535 11.4654 8.60609C11.6262 8.76684 11.8442 8.85714 12.0715 8.85714C12.2989 8.85714 12.5169 8.76684 12.6776 8.60609C12.8384 8.44535 12.9287 8.22733 12.9287 8C12.9287 7.77267 12.8384 7.55465 12.6776 7.39391C12.5169 7.23316 12.2989 7.14286 12.0715 7.14286C11.8442 7.14286 11.6262 7.23316 11.4654 7.39391C11.3047 7.55465 11.2144 7.77267 11.2144 8ZM4.07153 8C4.07153 8.22733 4.16184 8.44535 4.32258 8.60609C4.48333 8.76684 4.70134 8.85714 4.92867 8.85714C5.156 8.85714 5.37402 8.76684 5.53476 8.60609C5.69551 8.44535 5.78582 8.22733 5.78582 8C5.78582 7.77267 5.69551 7.55465 5.53476 7.39391C5.37402 7.23316 5.156 7.14286 4.92867 7.14286C4.70134 7.14286 4.48333 7.23316 4.32258 7.39391C4.16184 7.55465 4.07153 7.77267 4.07153 8ZM15.8787 4.9C15.4751 3.94107 14.8965 3.08036 14.159 2.34107C13.4267 1.60607 12.5573 1.02182 11.6001 0.621429C10.618 0.208929 9.5751 0 8.5001 0H8.46439C7.38224 0.00535714 6.33403 0.219643 5.34832 0.641071C4.39931 1.04557 3.53807 1.63085 2.8126 2.36429C2.08224 3.10179 1.50903 3.95893 1.1126 4.91429C0.701887 5.90357 0.494744 6.95536 0.500101 8.0375C0.506161 9.27763 0.799551 10.4995 1.35724 11.6071V14.3214C1.35724 14.5393 1.44379 14.7482 1.59783 14.9023C1.75188 15.0563 1.96082 15.1429 2.17867 15.1429H4.89474C6.00241 15.7006 7.22426 15.9939 8.46439 16H8.50189C9.57153 16 10.609 15.7929 11.5858 15.3875C12.5382 14.9919 13.4043 14.4144 14.1358 13.6875C14.8733 12.9571 15.4537 12.1036 15.859 11.1518C16.2805 10.1661 16.4947 9.11786 16.5001 8.03572C16.5055 6.94821 16.2947 5.89286 15.8787 4.9ZM13.1805 12.7214C11.9287 13.9607 10.268 14.6429 8.5001 14.6429H8.46974C7.39296 14.6375 6.32332 14.3696 5.37867 13.8661L5.22867 13.7857H2.71439V11.2714L2.63403 11.1214C2.13046 10.1768 1.8626 9.10714 1.85724 8.03036C1.8501 6.25 2.53046 4.57857 3.77867 3.31964C5.0251 2.06071 6.69117 1.36429 8.47153 1.35714H8.50189C9.39474 1.35714 10.2608 1.53036 11.0769 1.87321C11.8733 2.20714 12.5876 2.6875 13.2019 3.30179C13.8144 3.91429 14.2965 4.63036 14.6305 5.42679C14.9769 6.25179 15.1501 7.12679 15.1465 8.03036C15.1358 9.80893 14.4376 11.475 13.1805 12.7214Z" fill="#4974E6"/>
</svg>
