<svg width="22" height="19" viewBox="0 0 22 19" fill="none" xmlns="http://www.w3.org/2000/svg">
<path d="M3 1.5V0.5V1.5ZM19 1.5V0.5V1.5ZM1 15.5H0H1ZM8.501 11.501L9.12575 10.7202L9.12571 10.7201L8.501 11.501ZM13.499 11.501L12.8743 10.7201L12.8742 10.7202L13.499 11.501ZM2 3.5C2 3.23478 2.10536 2.98043 2.29289 2.79289L0.87868 1.37868C0.31607 1.94129 0 2.70435 0 3.5H2ZM2.29289 2.79289C2.48043 2.60536 2.73478 2.5 3 2.5V0.5C2.20435 0.5 1.44129 0.81607 0.87868 1.37868L2.29289 2.79289ZM3 2.5H19V0.5H3V2.5ZM19 2.5C19.2652 2.5 19.5196 2.60536 19.7071 2.79289L21.1213 1.37868C20.5587 0.81607 19.7957 0.5 19 0.5V2.5ZM19.7071 2.79289C19.8946 2.98043 20 3.23478 20 3.5H22C22 2.70435 21.6839 1.94129 21.1213 1.37868L19.7071 2.79289ZM20 3.5V15.5H22V3.5H20ZM20 15.5C20 15.7652 19.8946 16.0196 19.7071 16.2071L21.1213 17.6213C21.6839 17.0587 22 16.2957 22 15.5H20ZM19.7071 16.2071C19.5196 16.3946 19.2652 16.5 19 16.5V18.5C19.7957 18.5 20.5587 18.1839 21.1213 17.6213L19.7071 16.2071ZM19 16.5H3V18.5H19V16.5ZM3 16.5C2.73478 16.5 2.48043 16.3946 2.29289 16.2071L0.87868 17.6213C1.44129 18.1839 2.20435 18.5 3 18.5V16.5ZM2.29289 16.2071C2.10536 16.0196 2 15.7652 2 15.5H0C0 16.2956 0.31607 17.0587 0.87868 17.6213L2.29289 16.2071ZM2 15.5V3.5H0V15.5H2ZM0.375292 6.28086L7.87629 12.2819L9.12571 10.7201L1.62471 4.71914L0.375292 6.28086ZM7.87625 12.2818C8.76286 12.9912 9.86452 13.3777 11 13.3777V11.3777C10.3187 11.3777 9.65772 11.1458 9.12575 10.7202L7.87625 12.2818ZM11 13.3777C12.1355 13.3777 13.2371 12.9912 14.1237 12.2818L12.8742 10.7202C12.3423 11.1458 11.6813 11.3777 11 11.3777V13.3777ZM14.1237 12.2819L21.6247 6.28086L20.3753 4.71914L12.8743 10.7201L14.1237 12.2819Z" fill="url(#paint0_linear)"/>
<defs>
<linearGradient id="paint0_linear" x1="1" y1="9.5" x2="21" y2="9.5" gradientUnits="userSpaceOnUse">
<stop stop-color="#4776E6"/>
<stop offset="1" stop-color="#8E54E9"/>
</linearGradient>
</defs>
</svg>
