<svg width="19" height="25" viewBox="0 0 19 25" fill="none" xmlns="http://www.w3.org/2000/svg">
<path d="M3.35159 1.05906L4.74535 0.639858C5.50886 0.409623 6.33006 0.465047 7.05571 0.795787C7.78136 1.12653 8.36189 1.70999 8.68897 2.4373L9.76624 4.83309C10.0475 5.45867 10.1258 6.15659 9.99018 6.82894C9.8546 7.50129 9.51192 8.11433 9.01024 8.58203L7.22593 10.2457C7.17378 10.2943 7.14073 10.36 7.13278 10.4308C7.08023 10.905 7.4015 11.8282 8.14197 13.1121C8.68061 14.0448 9.16908 14.7005 9.58351 15.0671C9.87253 15.3239 10.0314 15.3789 10.0994 15.3597L12.5 14.6252C13.1556 14.4247 13.8575 14.4344 14.5073 14.6528C15.1571 14.8713 15.7223 15.2876 16.1236 15.8434L17.6535 17.9645C18.1187 18.6096 18.3341 19.4015 18.2596 20.1933C18.1852 20.9851 17.8259 21.723 17.2486 22.27L16.1904 23.2733C15.6288 23.8051 14.9391 24.1824 14.1883 24.3685C13.4376 24.5545 12.6514 24.543 11.9064 24.335C8.61731 23.4166 5.66855 20.641 3.02674 16.0656C0.381336 11.4842 -0.546645 7.5382 0.308482 4.22638C0.500976 3.48152 0.882094 2.79882 1.4151 2.24406C1.94811 1.68929 2.61503 1.28118 3.35159 1.05906ZM3.86873 2.77529C3.42692 2.9084 3.02683 3.15303 2.70699 3.48563C2.38716 3.81822 2.15836 4.22757 2.04262 4.67424C1.32365 7.45938 2.14653 10.9575 4.57815 15.1699C7.00618 19.3762 9.62053 21.8365 12.3889 22.6104C12.8358 22.7349 13.3072 22.7415 13.7574 22.6298C14.2076 22.518 14.6212 22.2916 14.9579 21.9727L16.0173 20.9694C16.2798 20.7208 16.4431 20.3853 16.477 20.0252C16.5108 19.6652 16.4128 19.3052 16.2012 19.012L14.6725 16.892C14.49 16.6391 14.233 16.4496 13.9374 16.3503C13.6418 16.2509 13.3225 16.2465 13.0243 16.3379L10.6178 17.0748C9.22044 17.4904 7.95208 16.3666 6.59056 14.0078C5.67333 12.4194 5.24577 11.1892 5.35206 10.2326C5.40819 9.73573 5.6387 9.27712 6.00415 8.93554L7.78846 7.27187C8.0166 7.0593 8.17245 6.78063 8.23414 6.47497C8.29583 6.16931 8.26025 5.852 8.13242 5.56759L7.05515 3.1718C6.90648 2.84146 6.64277 2.57645 6.31317 2.42615C5.98358 2.27585 5.61057 2.25053 5.26368 2.35489L3.86873 2.77529Z" fill="url(#paint0_linear)"/>
<defs>
<linearGradient id="paint0_linear" x1="0" y1="12.5" x2="18.2741" y2="12.5" gradientUnits="userSpaceOnUse">
<stop stop-color="#4776E6"/>
<stop offset="1" stop-color="#8E54E9"/>
</linearGradient>
</defs>
</svg>
