<svg width="13" height="14" viewBox="0 0 13 14" fill="none" xmlns="http://www.w3.org/2000/svg">
<path d="M3.68745 0.5C3.80812 0.5 3.92385 0.547937 4.00918 0.633266C4.09451 0.718595 4.14245 0.834326 4.14245 0.955V1.80585H9.0285V0.96085C9.0285 0.840176 9.07644 0.724445 9.16177 0.639116C9.2471 0.553787 9.36283 0.50585 9.4835 0.50585C9.60417 0.50585 9.7199 0.553787 9.80523 0.639116C9.89056 0.724445 9.9385 0.840176 9.9385 0.96085V1.80585H11.7C12.0447 1.80585 12.3752 1.94272 12.619 2.18638C12.8628 2.43004 12.9998 2.76053 13 3.1052V12.2006C12.9998 12.5453 12.8628 12.8758 12.619 13.1195C12.3752 13.3631 12.0447 13.5 11.7 13.5H1.3C0.955331 13.5 0.62477 13.3631 0.380991 13.1195C0.137212 12.8758 0.000172334 12.5453 0 12.2006V3.1052C0.000172334 2.76053 0.137212 2.43004 0.380991 2.18638C0.62477 1.94272 0.955331 1.80585 1.3 1.80585H3.23245V0.95435C3.23262 0.833789 3.28064 0.718225 3.36595 0.633037C3.45126 0.547848 3.56689 0.5 3.68745 0.5ZM0.91 5.5323V12.2006C0.91 12.2519 0.920088 12.3026 0.939687 12.3499C0.959286 12.3972 0.988013 12.4402 1.02423 12.4764C1.06044 12.5126 1.10344 12.5414 1.15075 12.561C1.19807 12.5806 1.24878 12.5906 1.3 12.5906H11.7C11.7512 12.5906 11.8019 12.5806 11.8492 12.561C11.8966 12.5414 11.9396 12.5126 11.9758 12.4764C12.012 12.4402 12.0407 12.3972 12.0603 12.3499C12.0799 12.3026 12.09 12.2519 12.09 12.2006V5.5414L0.91 5.5323ZM4.33355 10.0023V11.0852H3.25V10.0023H4.33355ZM7.04145 10.0023V11.0852H5.95855V10.0023H7.04145ZM9.75 10.0023V11.0852H8.66645V10.0023H9.75ZM4.33355 7.4173V8.5002H3.25V7.4173H4.33355ZM7.04145 7.4173V8.5002H5.95855V7.4173H7.04145ZM9.75 7.4173V8.5002H8.66645V7.4173H9.75ZM3.23245 2.7152H1.3C1.24878 2.7152 1.19807 2.72529 1.15075 2.74489C1.10344 2.76449 1.06044 2.79321 1.02423 2.82943C0.988013 2.86564 0.959286 2.90864 0.939687 2.95595C0.920088 3.00327 0.91 3.05398 0.91 3.1052V4.62295L12.09 4.63205V3.1052C12.09 3.05398 12.0799 3.00327 12.0603 2.95595C12.0407 2.90864 12.012 2.86564 11.9758 2.82943C11.9396 2.79321 11.8966 2.76449 11.8492 2.74489C11.8019 2.72529 11.7512 2.7152 11.7 2.7152H9.9385V3.31905C9.9385 3.43972 9.89056 3.55545 9.80523 3.64078C9.7199 3.72611 9.60417 3.77405 9.4835 3.77405C9.36283 3.77405 9.2471 3.72611 9.16177 3.64078C9.07644 3.55545 9.0285 3.43972 9.0285 3.31905V2.7152H4.14245V3.3132C4.14245 3.43387 4.09451 3.5496 4.00918 3.63493C3.92385 3.72026 3.80812 3.7682 3.68745 3.7682C3.56678 3.7682 3.45105 3.72026 3.36572 3.63493C3.28039 3.5496 3.23245 3.43387 3.23245 3.3132V2.7152Z" fill="#4974E6"/>
</svg>
