<svg width="12" height="10" viewBox="0 0 12 10" fill="none" xmlns="http://www.w3.org/2000/svg">
<path d="M3.17616 3.7839e-06C3.16134 -0.000132609 3.14672 0.00342024 3.13361 0.0103423C3.12051 0.0172643 3.10933 0.027338 3.10109 0.0396556C3.09285 0.0519732 3.0878 0.0661478 3.08641 0.080902C3.08501 0.0956562 3.0873 0.110527 3.09308 0.124173L3.14445 0.245439L4.05338 2.3648C4.05956 2.37922 4.06942 2.39175 4.08198 2.40115C4.09454 2.41054 4.10935 2.41646 4.12492 2.41832C4.14049 2.42018 4.15628 2.4179 4.17069 2.41172C4.18511 2.40554 4.19764 2.39568 4.20703 2.38312L5.88465 0.142933C5.89461 0.129661 5.90067 0.113879 5.90216 0.0973566C5.90365 0.0808339 5.90051 0.0642228 5.89309 0.0493845C5.88567 0.0345462 5.87426 0.022067 5.86015 0.0133452C5.84604 0.00462348 5.82978 3.7839e-06 5.81319 3.7839e-06H3.17616Z" fill="url(#paint0_linear)"/>
<path d="M9.83596 0.581965L8.91407 2.73415C8.90827 2.74774 8.90593 2.76255 8.90726 2.77726C8.9086 2.79197 8.91356 2.80613 8.9217 2.81845C8.92984 2.83078 8.94092 2.84089 8.95393 2.84789C8.96694 2.85489 8.98148 2.85855 8.99625 2.85854H11.2518C11.2678 2.85855 11.2834 2.8543 11.2971 2.84623C11.3109 2.83816 11.3222 2.82657 11.3299 2.81265C11.3377 2.79873 11.3416 2.783 11.3412 2.76707C11.3408 2.75115 11.3362 2.73562 11.3278 2.72209L9.99385 0.570129C9.98523 0.556274 9.97298 0.545045 9.95843 0.537659C9.94388 0.530273 9.92759 0.527013 9.91132 0.528233C9.89505 0.529453 9.87942 0.535106 9.86614 0.544578C9.85285 0.55405 9.84241 0.56698 9.83596 0.581965Z" fill="url(#paint1_linear)"/>
<path d="M2.3561 0.571036L1.02263 2.72211C1.01422 2.73564 1.00959 2.75117 1.00921 2.7671C1.00883 2.78302 1.01271 2.79875 1.02046 2.81267C1.0282 2.82659 1.03953 2.83818 1.05326 2.84625C1.06699 2.85432 1.08263 2.85857 1.09856 2.85857H3.35415C3.36893 2.85855 3.38348 2.85486 3.39648 2.84784C3.40949 2.84082 3.42055 2.83067 3.42867 2.81832C3.4368 2.80597 3.44173 2.7918 3.44303 2.77707C3.44432 2.76235 3.44195 2.74753 3.43611 2.73395L2.51243 0.582872C2.50583 0.56826 2.49541 0.555696 2.48227 0.546497C2.46914 0.537299 2.45377 0.531807 2.43778 0.530596C2.42179 0.529385 2.40577 0.532501 2.3914 0.539617C2.37702 0.546732 2.36483 0.557585 2.3561 0.571036Z" fill="url(#paint2_linear)"/>
<path d="M9.24058 9.08514e-06H6.43895C6.43087 -4.32072e-05 6.42293 0.00216733 6.41604 0.00639074C6.40914 0.0106142 6.40357 0.016682 6.39995 0.023908C6.39632 0.0311341 6.39479 0.0392301 6.39553 0.0472807C6.39626 0.0553312 6.39924 0.0630151 6.40411 0.0694635L8.18894 2.44699C8.19349 2.4531 8.19958 2.4579 8.20658 2.4609C8.21358 2.46391 8.22125 2.46501 8.22882 2.46411C8.23638 2.4632 8.24358 2.46032 8.24967 2.45574C8.25576 2.45117 8.26055 2.44507 8.26353 2.43806L9.20329 0.245668L9.27922 0.0594138C9.28189 0.0530207 9.28298 0.0460743 9.28238 0.0391695C9.28179 0.0322647 9.27953 0.0256073 9.27579 0.0197675C9.27206 0.0139278 9.26697 0.00907972 9.26095 0.00563858C9.25494 0.00219744 9.24751 0.000265785 9.24058 9.08514e-06Z" fill="url(#paint3_linear)"/>
<path d="M5.79534 9.29033L3.79814 3.62925C3.79227 3.61281 3.78146 3.59859 3.76718 3.58855C3.7529 3.57852 3.73586 3.57315 3.71841 3.57319H1.0318C1.01624 3.57315 1.00098 3.57748 0.987752 3.58568C0.974529 3.59389 0.963877 3.60565 0.95701 3.61962C0.950143 3.63358 0.947338 3.6492 0.948913 3.66468C0.950488 3.68016 0.956381 3.69489 0.96592 3.70719L5.78975 9.95606C5.80608 9.97721 5.82938 9.99189 5.8555 9.99749C5.88163 10.0031 5.90889 9.99925 5.93246 9.98666C5.95616 9.97419 5.97459 9.95362 5.98439 9.92869C5.99419 9.90376 5.9947 9.87615 5.98583 9.85088L5.79534 9.29033Z" fill="url(#paint4_linear)"/>
<path d="M11.3182 3.57319H8.63157C8.61421 3.57319 8.59727 3.57858 8.58311 3.58862C8.56894 3.59867 8.55825 3.61286 8.55251 3.62925L6.35945 9.84127C6.35024 9.86735 6.35062 9.89586 6.36052 9.92168C6.37043 9.94751 6.38921 9.96896 6.41349 9.98219C6.43779 9.99535 6.46596 9.99945 6.493 9.99377C6.52004 9.98808 6.54418 9.97298 6.56111 9.95115L11.3841 3.70719C11.3936 3.69489 11.3995 3.68016 11.4011 3.66468C11.4026 3.6492 11.3998 3.63358 11.393 3.61962C11.3861 3.60565 11.3755 3.59389 11.3622 3.58568C11.349 3.57748 11.3337 3.57315 11.3182 3.57319Z" fill="url(#paint5_linear)"/>
<path d="M6.24644 1.04805L7.49706 2.71562C7.50701 2.7289 7.51307 2.74468 7.51456 2.7612C7.51605 2.77772 7.51291 2.79433 7.50549 2.80917C7.49808 2.82401 7.48667 2.83649 7.47256 2.84521C7.45845 2.85393 7.44218 2.85855 7.4256 2.85855H4.92436C4.90777 2.85855 4.8915 2.85393 4.87739 2.84521C4.86328 2.83649 4.85188 2.82401 4.84446 2.80917C4.83704 2.79433 4.8339 2.77772 4.83539 2.7612C4.83688 2.74468 4.84294 2.7289 4.85289 2.71562L6.10351 1.04805C6.11183 1.03696 6.12262 1.02795 6.13503 1.02175C6.14743 1.01555 6.16111 1.01232 6.17498 1.01232C6.18884 1.01232 6.20252 1.01555 6.21493 1.02175C6.22733 1.02795 6.23812 1.03696 6.24644 1.04805ZM6.09011 7.97807L4.5782 3.69223C4.57345 3.67876 4.572 3.66435 4.57397 3.65021C4.57594 3.63606 4.58127 3.6226 4.58952 3.61094C4.59777 3.59928 4.60869 3.58977 4.62137 3.5832C4.63405 3.57663 4.64812 3.5732 4.6624 3.57319H7.68756C7.70184 3.5732 7.7159 3.57663 7.72858 3.5832C7.74126 3.58977 7.75219 3.59928 7.76043 3.61094C7.76868 3.6226 7.77401 3.63606 7.77598 3.65021C7.77795 3.66435 7.7765 3.67876 7.77175 3.69223L6.25917 7.97807C6.253 7.99547 6.24159 8.01052 6.22652 8.02118C6.21144 8.03183 6.19343 8.03754 6.17498 8.03754C6.15652 8.03754 6.13851 8.03183 6.12343 8.02118C6.10836 8.01052 6.09628 7.99547 6.09011 7.97807Z" fill="url(#paint6_linear)"/>
<defs>
<linearGradient id="paint0_linear" x1="0.948486" y1="5" x2="11.4015" y2="5" gradientUnits="userSpaceOnUse">
<stop stop-color="#4776E6"/>
<stop offset="1" stop-color="#8E54E9"/>
</linearGradient>
<linearGradient id="paint1_linear" x1="0.948486" y1="5" x2="11.4015" y2="5" gradientUnits="userSpaceOnUse">
<stop stop-color="#4776E6"/>
<stop offset="1" stop-color="#8E54E9"/>
</linearGradient>
<linearGradient id="paint2_linear" x1="0.948486" y1="5" x2="11.4015" y2="5" gradientUnits="userSpaceOnUse">
<stop stop-color="#4776E6"/>
<stop offset="1" stop-color="#8E54E9"/>
</linearGradient>
<linearGradient id="paint3_linear" x1="0.948486" y1="5" x2="11.4015" y2="5" gradientUnits="userSpaceOnUse">
<stop stop-color="#4776E6"/>
<stop offset="1" stop-color="#8E54E9"/>
</linearGradient>
<linearGradient id="paint4_linear" x1="0.948486" y1="5" x2="11.4015" y2="5" gradientUnits="userSpaceOnUse">
<stop stop-color="#4776E6"/>
<stop offset="1" stop-color="#8E54E9"/>
</linearGradient>
<linearGradient id="paint5_linear" x1="0.948486" y1="5" x2="11.4015" y2="5" gradientUnits="userSpaceOnUse">
<stop stop-color="#4776E6"/>
<stop offset="1" stop-color="#8E54E9"/>
</linearGradient>
<linearGradient id="paint6_linear" x1="0.948486" y1="5" x2="11.4015" y2="5" gradientUnits="userSpaceOnUse">
<stop stop-color="#4776E6"/>
<stop offset="1" stop-color="#8E54E9"/>
</linearGradient>
</defs>
</svg>
