<svg width="13" height="8" viewBox="0 0 13 8" fill="none" xmlns="http://www.w3.org/2000/svg">
<path d="M6.554 7.84441C6.35408 7.84486 6.16033 7.76349 6.00639 7.61441L0.872519 2.61441C0.697782 2.44467 0.587897 2.20076 0.567036 1.93633C0.546176 1.6719 0.616049 1.40862 0.761285 1.20441C0.906521 1.00019 1.11522 0.871766 1.34148 0.847386C1.56773 0.823007 1.79301 0.904668 1.96775 1.07441L6.554 5.55441L11.1403 1.23441C11.2278 1.15134 11.3285 1.08931 11.4366 1.05188C11.5447 1.01445 11.6581 1.00235 11.7702 1.01629C11.8823 1.03023 11.9909 1.06993 12.0899 1.1331C12.1888 1.19628 12.2761 1.28168 12.3467 1.38441C12.4251 1.48723 12.4844 1.60785 12.521 1.73873C12.5577 1.8696 12.5708 2.0079 12.5595 2.14497C12.5483 2.28203 12.5129 2.4149 12.4557 2.53526C12.3985 2.65562 12.3206 2.76086 12.2269 2.84441L7.09306 7.67441C6.93469 7.79992 6.7449 7.85978 6.554 7.84441Z" fill="#85858f"/>
</svg>
