<svg width="17" height="17" viewBox="0 0 17 17" fill="none" xmlns="http://www.w3.org/2000/svg">
<path d="M4.18945 2.34497C4.18945 2.8754 3.97874 3.38411 3.60367 3.75918C3.22859 4.13426 2.71989 4.34497 2.18945 4.34497C1.65902 4.34497 1.15031 4.13426 0.775239 3.75918C0.400167 3.38411 0.189453 2.8754 0.189453 2.34497C0.189453 1.81454 0.400167 1.30583 0.775239 0.930757C1.15031 0.555684 1.65902 0.344971 2.18945 0.344971C2.71989 0.344971 3.22859 0.555684 3.60367 0.930757C3.97874 1.30583 4.18945 1.81454 4.18945 2.34497Z" fill="url(#paint0_linear)"/>
<path d="M4.18945 8.34497C4.18945 8.8754 3.97874 9.38411 3.60367 9.75918C3.22859 10.1343 2.71989 10.345 2.18945 10.345C1.65902 10.345 1.15031 10.1343 0.775239 9.75918C0.400167 9.38411 0.189453 8.8754 0.189453 8.34497C0.189453 7.81454 0.400167 7.30583 0.775239 6.93076C1.15031 6.55568 1.65902 6.34497 2.18945 6.34497C2.71989 6.34497 3.22859 6.55568 3.60367 6.93076C3.97874 7.30583 4.18945 7.81454 4.18945 8.34497Z" fill="url(#paint1_linear)"/>
<path d="M2.18945 16.345C2.71989 16.345 3.22859 16.1343 3.60367 15.7592C3.97874 15.3841 4.18945 14.8754 4.18945 14.345C4.18945 13.8145 3.97874 13.3058 3.60367 12.9308C3.22859 12.5557 2.71989 12.345 2.18945 12.345C1.65902 12.345 1.15031 12.5557 0.775239 12.9308C0.400167 13.3058 0.189453 13.8145 0.189453 14.345C0.189453 14.8754 0.400167 15.3841 0.775239 15.7592C1.15031 16.1343 1.65902 16.345 2.18945 16.345Z" fill="url(#paint2_linear)"/>
<path d="M10.1895 2.34497C10.1895 2.8754 9.97874 3.38411 9.60367 3.75918C9.22859 4.13426 8.71989 4.34497 8.18945 4.34497C7.65902 4.34497 7.15031 4.13426 6.77524 3.75918C6.40017 3.38411 6.18945 2.8754 6.18945 2.34497C6.18945 1.81454 6.40017 1.30583 6.77524 0.930757C7.15031 0.555684 7.65902 0.344971 8.18945 0.344971C8.71989 0.344971 9.22859 0.555684 9.60367 0.930757C9.97874 1.30583 10.1895 1.81454 10.1895 2.34497Z" fill="url(#paint3_linear)"/>
<path d="M8.18945 10.345C8.71989 10.345 9.22859 10.1343 9.60367 9.75918C9.97874 9.38411 10.1895 8.8754 10.1895 8.34497C10.1895 7.81454 9.97874 7.30583 9.60367 6.93076C9.22859 6.55568 8.71989 6.34497 8.18945 6.34497C7.65902 6.34497 7.15031 6.55568 6.77524 6.93076C6.40017 7.30583 6.18945 7.81454 6.18945 8.34497C6.18945 8.8754 6.40017 9.38411 6.77524 9.75918C7.15031 10.1343 7.65902 10.345 8.18945 10.345Z" fill="url(#paint4_linear)"/>
<path d="M10.1895 14.345C10.1895 14.8754 9.97874 15.3841 9.60367 15.7592C9.22859 16.1343 8.71989 16.345 8.18945 16.345C7.65902 16.345 7.15031 16.1343 6.77524 15.7592C6.40017 15.3841 6.18945 14.8754 6.18945 14.345C6.18945 13.8145 6.40017 13.3058 6.77524 12.9308C7.15031 12.5557 7.65902 12.345 8.18945 12.345C8.71989 12.345 9.22859 12.5557 9.60367 12.9308C9.97874 13.3058 10.1895 13.8145 10.1895 14.345Z" fill="url(#paint5_linear)"/>
<path d="M14.1895 4.34497C14.7199 4.34497 15.2286 4.13426 15.6037 3.75918C15.9787 3.38411 16.1895 2.8754 16.1895 2.34497C16.1895 1.81454 15.9787 1.30583 15.6037 0.930757C15.2286 0.555684 14.7199 0.344971 14.1895 0.344971C13.659 0.344971 13.1503 0.555684 12.7752 0.930757C12.4002 1.30583 12.1895 1.81454 12.1895 2.34497C12.1895 2.8754 12.4002 3.38411 12.7752 3.75918C13.1503 4.13426 13.659 4.34497 14.1895 4.34497Z" fill="url(#paint6_linear)"/>
<path d="M16.1895 8.34497C16.1895 8.8754 15.9787 9.38411 15.6037 9.75918C15.2286 10.1343 14.7199 10.345 14.1895 10.345C13.659 10.345 13.1503 10.1343 12.7752 9.75918C12.4002 9.38411 12.1895 8.8754 12.1895 8.34497C12.1895 7.81454 12.4002 7.30583 12.7752 6.93076C13.1503 6.55568 13.659 6.34497 14.1895 6.34497C14.7199 6.34497 15.2286 6.55568 15.6037 6.93076C15.9787 7.30583 16.1895 7.81454 16.1895 8.34497Z" fill="url(#paint7_linear)"/>
<path d="M14.1895 16.345C14.7199 16.345 15.2286 16.1343 15.6037 15.7592C15.9787 15.3841 16.1895 14.8754 16.1895 14.345C16.1895 13.8145 15.9787 13.3058 15.6037 12.9308C15.2286 12.5557 14.7199 12.345 14.1895 12.345C13.659 12.345 13.1503 12.5557 12.7752 12.9308C12.4002 13.3058 12.1895 13.8145 12.1895 14.345C12.1895 14.8754 12.4002 15.3841 12.7752 15.7592C13.1503 16.1343 13.659 16.345 14.1895 16.345Z" fill="url(#paint8_linear)"/>
<defs>
<linearGradient id="paint0_linear" x1="0.189453" y1="8.34497" x2="16.1895" y2="8.34497" gradientUnits="userSpaceOnUse">
<stop stop-color="#4776E6"/>
<stop offset="1" stop-color="#8E54E9"/>
</linearGradient>
<linearGradient id="paint1_linear" x1="0.189453" y1="8.34497" x2="16.1895" y2="8.34497" gradientUnits="userSpaceOnUse">
<stop stop-color="#4776E6"/>
<stop offset="1" stop-color="#8E54E9"/>
</linearGradient>
<linearGradient id="paint2_linear" x1="0.189453" y1="8.34497" x2="16.1895" y2="8.34497" gradientUnits="userSpaceOnUse">
<stop stop-color="#4776E6"/>
<stop offset="1" stop-color="#8E54E9"/>
</linearGradient>
<linearGradient id="paint3_linear" x1="0.189453" y1="8.34497" x2="16.1895" y2="8.34497" gradientUnits="userSpaceOnUse">
<stop stop-color="#4776E6"/>
<stop offset="1" stop-color="#8E54E9"/>
</linearGradient>
<linearGradient id="paint4_linear" x1="0.189453" y1="8.34497" x2="16.1895" y2="8.34497" gradientUnits="userSpaceOnUse">
<stop stop-color="#4776E6"/>
<stop offset="1" stop-color="#8E54E9"/>
</linearGradient>
<linearGradient id="paint5_linear" x1="0.189453" y1="8.34497" x2="16.1895" y2="8.34497" gradientUnits="userSpaceOnUse">
<stop stop-color="#4776E6"/>
<stop offset="1" stop-color="#8E54E9"/>
</linearGradient>
<linearGradient id="paint6_linear" x1="0.189453" y1="8.34497" x2="16.1895" y2="8.34497" gradientUnits="userSpaceOnUse">
<stop stop-color="#4776E6"/>
<stop offset="1" stop-color="#8E54E9"/>
</linearGradient>
<linearGradient id="paint7_linear" x1="0.189453" y1="8.34497" x2="16.1895" y2="8.34497" gradientUnits="userSpaceOnUse">
<stop stop-color="#4776E6"/>
<stop offset="1" stop-color="#8E54E9"/>
</linearGradient>
<linearGradient id="paint8_linear" x1="0.189453" y1="8.34497" x2="16.1895" y2="8.34497" gradientUnits="userSpaceOnUse">
<stop stop-color="#4776E6"/>
<stop offset="1" stop-color="#8E54E9"/>
</linearGradient>
</defs>
</svg>
