<svg width="14" height="14" viewBox="0 0 14 14" fill="none" xmlns="http://www.w3.org/2000/svg">
<path d="M13.6613 2.86902C13.4441 2.30759 13.1309 1.79882 12.7392 1.3712C12.3472 0.94231 11.8851 0.601475 11.3779 0.367231C10.852 0.123371 10.288 -0.0014504 9.71847 1.27149e-05C8.91954 1.27149e-05 8.14005 0.244222 7.46266 0.705507C7.3006 0.815853 7.14665 0.937054 7.0008 1.06911C6.85495 0.937054 6.701 0.815853 6.53894 0.705507C5.86155 0.244222 5.08206 1.27149e-05 4.28313 1.27149e-05C3.70783 1.27149e-05 3.15036 0.123022 2.62368 0.367231C2.11483 0.602396 1.65621 0.940672 1.26241 1.3712C0.870233 1.79834 0.556949 2.30723 0.340317 2.86902C0.115059 3.45332 0 4.07379 0 4.71235C0 5.31473 0.110198 5.94244 0.328973 6.58101C0.512096 7.11465 0.774626 7.66819 1.11008 8.22716C1.64162 9.11174 2.37249 10.0343 3.28 10.9695C4.78388 12.5198 6.27317 13.5907 6.33637 13.6341L6.72045 13.9091C6.8906 14.0303 7.10938 14.0303 7.27954 13.9091L7.66361 13.6341C7.72681 13.5889 9.21448 12.5198 10.72 10.9695C11.6275 10.0343 12.3584 9.11174 12.8899 8.22716C13.2254 7.66819 13.4895 7.11465 13.671 6.58101C13.8898 5.94244 14 5.31473 14 4.71235C14.0016 4.07379 13.8865 3.45332 13.6613 2.86902ZM7.0008 12.4782C7.0008 12.4782 1.23162 8.35198 1.23162 4.71235C1.23162 2.86902 2.59775 1.37482 4.28313 1.37482C5.46776 1.37482 6.49519 2.11288 7.0008 3.19102C7.50641 2.11288 8.53385 1.37482 9.71847 1.37482C11.4039 1.37482 12.77 2.86902 12.77 4.71235C12.77 8.35198 7.0008 12.4782 7.0008 12.4782Z" fill="#4974E6"/>
</svg>
