<svg width="68" height="56" viewBox="0 0 68 56" fill="none" xmlns="http://www.w3.org/2000/svg">
<path d="M66.7221 9.56563C66.4113 9.26347 66.0413 9.02386 65.6335 8.86072C65.2258 8.69759 64.7884 8.61419 64.3469 8.61539H61.9756V3.23077C61.9746 2.37421 61.621 1.55301 60.9924 0.947333C60.3637 0.341655 59.5114 0.000962005 58.6224 0H10.3678C7.75072 3.57013e-05 5.24082 1.00173 3.39026 2.78472C1.53969 4.56771 0.500037 6.98595 0.5 9.50748V46.4925C0.500037 49.014 1.53969 51.4323 3.39026 53.2153C5.24082 54.9983 7.75072 56 10.3678 56H64.2149C65.1018 55.9983 65.9521 55.6588 66.5802 55.0556C67.2084 54.4523 67.5635 53.6341 67.5681 52.7796L67.7 11.8572C67.7027 11.4318 67.6177 11.0102 67.4498 10.6168C67.282 10.2234 67.0346 9.86609 66.7221 9.56563ZM63.1007 51.6923H10.3678C8.93648 51.6923 7.56376 51.1445 6.55166 50.1693C5.53955 49.1942 4.97095 47.8716 4.97095 46.4925V9.50748C4.97095 8.12841 5.53955 6.80582 6.55166 5.83068C7.56376 4.85553 8.93648 4.30769 10.3678 4.30769H57.5047V8.61539H10.5596V12.9231H63.2257L63.1007 51.6923Z" fill="url(#paint0_linear)"/>
<path d="M53.0337 29.0769H57.5047V33.3846H53.0337V29.0769Z" fill="url(#paint1_linear)"/>
<defs>
<linearGradient id="paint0_linear" x1="0.5" y1="28" x2="67.7" y2="28" gradientUnits="userSpaceOnUse">
<stop stop-color="#4776E6"/>
<stop offset="1" stop-color="#8E54E9"/>
</linearGradient>
<linearGradient id="paint1_linear" x1="0.5" y1="28" x2="67.7" y2="28" gradientUnits="userSpaceOnUse">
<stop stop-color="#4776E6"/>
<stop offset="1" stop-color="#8E54E9"/>
</linearGradient>
</defs>
</svg>
