<svg width="51" height="56" viewBox="0 0 51 56" fill="none" xmlns="http://www.w3.org/2000/svg">
<path fill-rule="evenodd" clip-rule="evenodd" d="M35.9744 28.511C36.142 28.6736 36.275 28.8667 36.3658 29.0793C36.4565 29.2919 36.5032 29.5198 36.5032 29.75C36.5032 29.9802 36.4565 30.2081 36.3658 30.4207C36.275 30.6333 36.142 30.8264 35.9744 30.989L25.1744 41.489C25.0072 41.652 24.8086 41.7813 24.5899 41.8695C24.3712 41.9577 24.1368 42.0031 23.9 42.0031C23.6632 42.0031 23.4288 41.9577 23.2101 41.8695C22.9914 41.7813 22.7928 41.652 22.6256 41.489L17.2256 36.239C17.0582 36.0763 16.9255 35.8831 16.8349 35.6705C16.7443 35.458 16.6977 35.2301 16.6977 35C16.6977 34.7699 16.7443 34.542 16.8349 34.3295C16.9255 34.1169 17.0582 33.9237 17.2256 33.761C17.5636 33.4324 18.022 33.2478 18.5 33.2478C18.7367 33.2478 18.971 33.2931 19.1897 33.3812C19.4084 33.4692 19.607 33.5983 19.7744 33.761L23.9 37.7755L33.4256 28.511C33.5928 28.348 33.7914 28.2187 34.0101 28.1305C34.2288 28.0423 34.4632 27.9969 34.7 27.9969C34.9368 27.9969 35.1712 28.0423 35.3899 28.1305C35.6086 28.2187 35.8072 28.348 35.9744 28.511Z" fill="url(#paint0_linear)"/>
<path d="M25.7 3.5C28.087 3.5 30.3761 4.42187 32.064 6.06282C33.7518 7.70376 34.7 9.92936 34.7 12.25V14H16.7V12.25C16.7 9.92936 17.6482 7.70376 19.336 6.06282C21.0239 4.42187 23.3131 3.5 25.7 3.5ZM38.3 14V12.25C38.3 9.0011 36.9725 5.88526 34.6095 3.58794C32.2466 1.29062 29.0417 0 25.7 0C22.3583 0 19.1534 1.29062 16.7905 3.58794C14.4275 5.88526 13.1 9.0011 13.1 12.25V14H0.5V49C0.5 50.8565 1.25857 52.637 2.60883 53.9497C3.95909 55.2625 5.79044 56 7.7 56H43.7C45.6096 56 47.4409 55.2625 48.7912 53.9497C50.1414 52.637 50.9 50.8565 50.9 49V14H38.3ZM4.1 17.5H47.3V49C47.3 49.9283 46.9207 50.8185 46.2456 51.4749C45.5705 52.1312 44.6548 52.5 43.7 52.5H7.7C6.74522 52.5 5.82955 52.1312 5.15442 51.4749C4.47928 50.8185 4.1 49.9283 4.1 49V17.5Z" fill="url(#paint1_linear)"/>
<defs>
<linearGradient id="paint0_linear" x1="0.5" y1="28" x2="50.9" y2="28" gradientUnits="userSpaceOnUse">
<stop stop-color="#4776E6"/>
<stop offset="1" stop-color="#8E54E9"/>
</linearGradient>
<linearGradient id="paint1_linear" x1="0.5" y1="28" x2="50.9" y2="28" gradientUnits="userSpaceOnUse">
<stop stop-color="#4776E6"/>
<stop offset="1" stop-color="#8E54E9"/>
</linearGradient>
</defs>
</svg>
