<svg width="57" height="56" viewBox="0 0 57 56" fill="none" xmlns="http://www.w3.org/2000/svg">
<path d="M47.7502 17.5006C49.9711 17.5012 52.1086 18.3462 53.7295 19.8644C55.3504 21.3826 56.3333 23.4604 56.479 25.6765L56.5 26.2505V47.2501C56.4995 49.471 55.6544 51.6086 54.1362 53.2295C52.618 54.8504 50.5403 55.8333 48.3242 55.979L47.7502 56H26.7508C24.5294 56.0003 22.391 55.1557 20.7693 53.6374C19.1477 52.1191 18.1643 50.0408 18.0186 47.8241L18.0011 47.2501V26.2505C18.0007 24.029 18.8454 21.8906 20.3636 20.2689C21.8819 18.6473 23.9602 17.6639 26.1768 17.5181L26.7508 17.5006H47.7502ZM47.7502 21.0006H26.7508C25.4458 21.0006 24.1875 21.4868 23.2215 22.3642C22.2554 23.2416 21.6508 24.4475 21.5255 25.7465L21.501 26.2505V47.2501C21.501 48.5552 21.9872 49.8135 22.8646 50.7796C23.742 51.7456 24.9478 52.3503 26.2468 52.4756L26.7508 52.5001H47.7502C49.0553 52.5 50.3135 52.0138 51.2796 51.1364C52.2457 50.259 52.8503 49.0532 52.9756 47.7541L53.0001 47.2501V26.2505C53 24.9454 52.5139 23.6872 51.6365 22.7211C50.7591 21.755 49.5533 21.1504 48.2542 21.0251L47.7502 21.0006ZM37.2505 24.5005C37.6601 24.5004 38.0568 24.6439 38.3714 24.9061C38.6861 25.1683 38.8988 25.5326 38.9725 25.9355L39.0005 26.2505L38.997 35.0003H47.7502C48.1875 34.9995 48.6093 35.1625 48.9325 35.4571C49.2556 35.7517 49.4567 36.1567 49.4963 36.5922C49.5358 37.0277 49.4108 37.4622 49.1459 37.8102C48.8811 38.1582 48.4955 38.3944 48.0652 38.4723L47.7502 38.5003H39.0005V47.2501C39.0013 47.6874 38.8383 48.1092 38.5437 48.4324C38.2491 48.7555 37.8442 48.9567 37.4087 48.9962C36.9731 49.0357 36.5386 48.9107 36.1907 48.6458C35.8427 48.381 35.6065 47.9954 35.5286 47.5651L35.5006 47.2501L35.4971 38.5003H26.7508C26.3135 38.5011 25.8918 38.3381 25.5686 38.0435C25.2455 37.7489 25.0443 37.3439 25.0048 36.9084C24.9653 36.4729 25.0903 36.0384 25.3551 35.6904C25.62 35.3424 26.0055 35.1063 26.4358 35.0283L26.7508 35.0003H35.5006V26.2505C35.5006 25.7864 35.685 25.3412 36.0131 25.0131C36.3413 24.6849 36.7864 24.5005 37.2505 24.5005ZM37.8175 5.93331L37.9855 6.4863L39.998 14.0007H36.3721L34.6046 7.38929C34.2667 6.12897 33.4715 5.03966 32.3741 4.33373C31.2767 3.62779 29.9558 3.35583 28.6688 3.57085L28.1753 3.67585L7.88635 9.11826C6.62809 9.45685 5.54071 10.2513 4.83563 11.3471C4.13055 12.4429 3.85818 13.7617 4.07146 15.0472L4.17646 15.5442L9.61531 35.8263C9.90611 36.9121 10.5378 37.8759 11.4173 38.5759C12.2968 39.2759 13.3778 39.6751 14.5012 39.7148V43.2147C12.7138 43.1761 10.981 42.5913 9.53573 41.539C8.09045 40.4866 7.00191 39.017 6.41639 37.3278L6.2344 36.7328L0.79905 16.4506C0.223236 14.305 0.485101 12.0207 1.53152 10.0611C2.57795 8.10148 4.33058 6.61325 6.43389 5.89831L6.98688 5.73382L27.2688 0.298405C29.3193 -0.251278 31.4997 -0.0367139 33.4038 0.902115C35.3078 1.84094 36.8056 3.44 37.618 5.40132L37.8175 5.93331Z" fill="url(#paint0_linear)"/>
<defs>
<linearGradient id="paint0_linear" x1="0.5" y1="28" x2="56.5" y2="28" gradientUnits="userSpaceOnUse">
<stop stop-color="#4776E6"/>
<stop offset="1" stop-color="#8E54E9"/>
</linearGradient>
</defs>
</svg>
