<svg width="14" height="16" viewBox="0 0 14 16" fill="none" xmlns="http://www.w3.org/2000/svg">
<path d="M1.93332 16H0.86665C0.654477 16 0.450994 15.9157 0.300965 15.7657C0.150936 15.6157 0.0666504 15.4122 0.0666504 15.2V10.4C0.0666504 10.1878 0.150936 9.98434 0.300965 9.83432C0.450994 9.68429 0.654477 9.6 0.86665 9.6H1.93332C2.14549 9.6 2.34897 9.68429 2.499 9.83432C2.64903 9.98434 2.73332 10.1878 2.73332 10.4V15.2C2.73332 15.4122 2.64903 15.6157 2.499 15.7657C2.34897 15.9157 2.14549 16 1.93332 16Z" fill="url(#paint0_linear)"/>
<path d="M9.39998 16H8.33332C8.12114 16 7.91766 15.9157 7.76763 15.7657C7.6176 15.6157 7.53332 15.4122 7.53332 15.2V7.2C7.53332 6.98783 7.6176 6.78434 7.76763 6.63432C7.91766 6.48429 8.12114 6.4 8.33332 6.4H9.39998C9.61216 6.4 9.81564 6.48429 9.96567 6.63432C10.1157 6.78434 10.2 6.98783 10.2 7.2V15.2C10.2 15.4122 10.1157 15.6157 9.96567 15.7657C9.81564 15.9157 9.61216 16 9.39998 16Z" fill="url(#paint1_linear)"/>
<path d="M13.1333 16H12.0667C11.8545 16 11.651 15.9157 11.501 15.7657C11.3509 15.6157 11.2667 15.4122 11.2667 15.2V3.46667C11.2667 3.25449 11.3509 3.05101 11.501 2.90098C11.651 2.75095 11.8545 2.66667 12.0667 2.66667H13.1333C13.3455 2.66667 13.549 2.75095 13.699 2.90098C13.849 3.05101 13.9333 3.25449 13.9333 3.46667V15.2C13.9333 15.4122 13.849 15.6157 13.699 15.7657C13.549 15.9157 13.3455 16 13.1333 16Z" fill="url(#paint2_linear)"/>
<path d="M5.66665 16H4.59998C4.38781 16 4.18433 15.9157 4.0343 15.7657C3.88427 15.6157 3.79998 15.4122 3.79998 15.2V0.8C3.79998 0.587827 3.88427 0.384344 4.0343 0.234315C4.18433 0.0842855 4.38781 0 4.59998 0H5.66665C5.87882 0 6.08231 0.0842855 6.23234 0.234315C6.38237 0.384344 6.46665 0.587827 6.46665 0.8V15.2C6.46665 15.4122 6.38237 15.6157 6.23234 15.7657C6.08231 15.9157 5.87882 16 5.66665 16Z" fill="url(#paint3_linear)"/>
<defs>
<linearGradient id="paint0_linear" x1="0.0666504" y1="8" x2="13.9333" y2="8" gradientUnits="userSpaceOnUse">
<stop stop-color="#4776E6"/>
<stop offset="1" stop-color="#8E54E9"/>
</linearGradient>
<linearGradient id="paint1_linear" x1="0.0666504" y1="8" x2="13.9333" y2="8" gradientUnits="userSpaceOnUse">
<stop stop-color="#4776E6"/>
<stop offset="1" stop-color="#8E54E9"/>
</linearGradient>
<linearGradient id="paint2_linear" x1="0.0666504" y1="8" x2="13.9333" y2="8" gradientUnits="userSpaceOnUse">
<stop stop-color="#4776E6"/>
<stop offset="1" stop-color="#8E54E9"/>
</linearGradient>
<linearGradient id="paint3_linear" x1="0.0666504" y1="8" x2="13.9333" y2="8" gradientUnits="userSpaceOnUse">
<stop stop-color="#4776E6"/>
<stop offset="1" stop-color="#8E54E9"/>
</linearGradient>
</defs>
</svg>
