<svg width="24" height="14" viewBox="0 0 24 14" fill="none" xmlns="http://www.w3.org/2000/svg">
<path d="M21.4545 6.40909C21.1704 6.41112 20.8889 6.46437 20.6237 6.56627L17.7897 4.24636C17.8594 3.99345 17.909 3.73109 17.909 3.45455C17.909 1.81655 16.5925 0.5 14.9545 0.5C13.3165 0.5 11.9999 1.81655 11.9999 3.45455C11.9999 3.92255 12.1181 4.35864 12.3096 4.751L8.87167 8.81409C8.73406 8.78833 8.59448 8.77449 8.45449 8.77273C8.24294 8.77273 8.04322 8.80818 7.8494 8.86018L4.8204 5.83118C4.87358 5.63855 4.90904 5.43882 4.90904 5.22727C4.90904 3.91782 3.85485 2.86364 2.5454 2.86364C1.23594 2.86364 0.181763 3.91782 0.181763 5.22727C0.181763 6.53673 1.23594 7.59091 2.5454 7.59091C2.75694 7.59091 2.95667 7.55545 3.15049 7.50345L6.17949 10.5325C6.12268 10.7288 6.09286 10.932 6.09085 11.1364C6.09085 12.4458 7.14504 13.5 8.45449 13.5C9.76394 13.5 10.8181 12.4458 10.8181 11.1364C10.8181 10.8563 10.7614 10.5927 10.6728 10.3434L14.1154 6.27555C14.3837 6.35355 14.6614 6.40909 14.9545 6.40909C15.4209 6.40651 15.8799 6.29266 16.2935 6.077L19.1287 8.39691C19.1064 8.52102 19.0938 8.64667 19.0909 8.77273C19.0909 10.0822 20.145 11.1364 21.4545 11.1364C22.7639 11.1364 23.8181 10.0822 23.8181 8.77273C23.8181 7.46327 22.7639 6.40909 21.4545 6.40909Z" fill="#4974E6"/>
</svg>
