<svg width="15" height="13" viewBox="0 0 15 13" fill="none" xmlns="http://www.w3.org/2000/svg">
<path d="M14.1613 2.66409C13.9441 2.14276 13.6309 1.67033 13.2392 1.27326C12.8472 0.875002 12.3851 0.558512 11.8779 0.341001C11.352 0.114559 10.788 -0.0013468 10.2185 1.18067e-05C9.41954 1.18067e-05 8.64005 0.226778 7.96266 0.655113C7.8006 0.757578 7.64665 0.870121 7.5008 0.992743C7.35495 0.870121 7.201 0.757578 7.03894 0.655113C6.36155 0.226778 5.58206 1.18067e-05 4.78313 1.18067e-05C4.20783 1.18067e-05 3.65036 0.114235 3.12368 0.341001C2.61483 0.559368 2.15621 0.873481 1.76241 1.27326C1.37023 1.66989 1.05695 2.14242 0.840317 2.66409C0.615059 3.20665 0.5 3.7828 0.5 4.37575C0.5 4.93511 0.610198 5.51798 0.828973 6.11093C1.0121 6.60646 1.27463 7.12046 1.61008 7.6395C2.14162 8.4609 2.87249 9.31757 3.78 10.186C5.28388 11.6255 6.77317 12.62 6.83637 12.6603L7.22045 12.9156C7.3906 13.0281 7.60938 13.0281 7.77954 12.9156L8.16361 12.6603C8.22681 12.6183 9.71448 11.6255 11.22 10.186C12.1275 9.31757 12.8584 8.4609 13.3899 7.6395C13.7254 7.12046 13.9895 6.60646 14.171 6.11093C14.3898 5.51798 14.5 4.93511 14.5 4.37575C14.5016 3.7828 14.3865 3.20665 14.1613 2.66409ZM7.5008 11.5869C7.5008 11.5869 1.73162 7.75541 1.73162 4.37575C1.73162 2.66409 3.09775 1.27662 4.78313 1.27662C5.96776 1.27662 6.99519 1.96196 7.5008 2.96309C8.00641 1.96196 9.03385 1.27662 10.2185 1.27662C11.9039 1.27662 13.27 2.66409 13.27 4.37575C13.27 7.75541 7.5008 11.5869 7.5008 11.5869Z" fill="url(#paint0_linear)"/>
<defs>
<linearGradient id="paint0_linear" x1="0.5" y1="6.5" x2="14.5" y2="6.5" gradientUnits="userSpaceOnUse">
<stop stop-color="#4776E6"/>
<stop offset="1" stop-color="#8E54E9"/>
</linearGradient>
</defs>
</svg>
