<svg width="23" height="10" viewBox="0 0 23 10" fill="none" xmlns="http://www.w3.org/2000/svg">
<path d="M22.0082 8.12489L19.4583 4.99999L21.9582 1.93759C22.0949 1.77006 22.1811 1.56702 22.2065 1.35228C22.232 1.13754 22.1957 0.919985 22.1019 0.725127C22.007 0.50672 21.8494 0.321324 21.6492 0.192308C21.449 0.0632909 21.2151 -0.0035713 20.977 0.000149551H1.6026C1.44583 -0.00233208 1.29011 0.0260929 1.14433 0.0838008C0.998556 0.141509 0.865574 0.227369 0.752982 0.336478C0.640391 0.445588 0.550396 0.575808 0.488139 0.719702C0.425881 0.863596 0.39258 1.01835 0.390137 1.17511V8.83112C0.396706 9.14663 0.527946 9.4467 0.755156 9.66572C0.982367 9.88473 1.28706 10.0049 1.6026 9.99983H21.0457C21.2759 10.0037 21.5024 9.94158 21.6984 9.82087C21.8944 9.70016 22.0518 9.52588 22.1519 9.3186C22.2419 9.12607 22.2761 8.91219 22.2507 8.7012C22.2253 8.49022 22.1413 8.29057 22.0082 8.12489ZM1.6401 8.74987V1.25011H20.877L17.8521 4.95624L20.9207 8.74987H1.6401Z" fill="url(#paint0_linear)"/>
<path d="M6.2587 5.84371L4.22127 3.12505H3.51504V6.98743H4.22127V4.27501L6.2587 6.98743H6.95868V3.12505H6.2587V5.84371Z" fill="url(#paint1_linear)"/>
<path d="M8.0024 6.98743H10.9148V6.34995H8.70862V5.34373H10.7023V4.7H8.70862V3.76878H10.9148V3.12505H8.0024V6.98743Z" fill="url(#paint2_linear)"/>
<path d="M15.7147 5.89371L14.8022 3.12505H14.0397L13.121 5.89371L12.296 3.12505H11.5273L12.7522 6.98743H13.446L14.4209 4.11877L15.3897 6.98743H16.0959L17.3146 3.12505H16.5459L15.7147 5.89371Z" fill="url(#paint3_linear)"/>
<defs>
<linearGradient id="paint0_linear" x1="0.390137" y1="5" x2="22.2588" y2="5" gradientUnits="userSpaceOnUse">
<stop stop-color="#4776E6"/>
<stop offset="1" stop-color="#8E54E9"/>
</linearGradient>
<linearGradient id="paint1_linear" x1="0.390137" y1="5" x2="22.2588" y2="5" gradientUnits="userSpaceOnUse">
<stop stop-color="#4776E6"/>
<stop offset="1" stop-color="#8E54E9"/>
</linearGradient>
<linearGradient id="paint2_linear" x1="0.390137" y1="5" x2="22.2588" y2="5" gradientUnits="userSpaceOnUse">
<stop stop-color="#4776E6"/>
<stop offset="1" stop-color="#8E54E9"/>
</linearGradient>
<linearGradient id="paint3_linear" x1="0.390137" y1="5" x2="22.2588" y2="5" gradientUnits="userSpaceOnUse">
<stop stop-color="#4776E6"/>
<stop offset="1" stop-color="#8E54E9"/>
</linearGradient>
</defs>
</svg>
