<svg width="7" height="11" viewBox="0 0 7 11" fill="none" xmlns="http://www.w3.org/2000/svg">
<path d="M6.49797 5.50784C6.49836 5.67445 6.42865 5.8359 6.30093 5.96419L2.01743 10.2424C1.87202 10.388 1.66306 10.4796 1.43652 10.497C1.20999 10.5144 0.984437 10.4561 0.809485 10.3351C0.634532 10.2141 0.524511 10.0402 0.503625 9.85161C0.482739 9.66307 0.552698 9.47534 0.698113 9.32973L4.53613 5.50784L0.835186 1.68596C0.764023 1.61302 0.71088 1.5291 0.678813 1.43902C0.646745 1.34893 0.636384 1.25446 0.648326 1.16104C0.660268 1.06761 0.694276 0.977063 0.748397 0.89461C0.802518 0.812157 0.875684 0.739419 0.96369 0.680577C1.05178 0.615277 1.15512 0.565821 1.26724 0.535309C1.37936 0.504796 1.49784 0.493884 1.61526 0.503256C1.73268 0.512627 1.84652 0.54208 1.94962 0.58977C2.05273 0.637461 2.1429 0.702361 2.21447 0.780403L6.35233 5.05863C6.45986 5.1906 6.51114 5.34876 6.49797 5.50784Z" fill="#656975"/>
</svg>
