<svg width="25" height="24" viewBox="0 0 25 24" fill="none" xmlns="http://www.w3.org/2000/svg">
<path d="M24.178 19.2132L20.118 15.1532L16.9951 13.863C18.0349 12.3844 18.592 10.6203 18.59 8.81258C18.59 3.9533 14.6367 0 9.77743 0C4.91814 0 0.964844 3.9533 0.964844 8.81258C0.964844 13.6719 4.91814 17.6252 9.77743 17.6252C11.6008 17.6272 13.3795 17.0605 14.8656 16.004L16.1525 19.1185L20.2123 23.1786C20.4727 23.439 20.7818 23.6456 21.122 23.7865C21.4622 23.9274 21.8268 24 22.1951 24C22.5633 24 22.9279 23.9275 23.2681 23.7866C23.6084 23.6457 23.9175 23.4391 24.1779 23.1788C24.4383 22.9184 24.6448 22.6093 24.7857 22.2691C24.9267 21.9289 24.9992 21.5643 24.9992 21.196C24.9992 20.8278 24.9267 20.4632 24.7858 20.123C24.6449 19.7827 24.4384 19.4736 24.178 19.2132ZM2.56713 8.81258C2.56713 4.83691 5.80175 1.60229 9.77743 1.60229C13.7531 1.60229 16.9877 4.83691 16.9877 8.81258C16.9877 12.7883 13.7531 16.0229 9.77743 16.0229C5.80175 16.0229 2.56713 12.7883 2.56713 8.81258ZM23.0449 22.0457C22.8194 22.2707 22.5138 22.3971 22.1952 22.3971C21.8765 22.3971 21.5709 22.2707 21.3454 22.0457L17.5113 18.2116L16.3149 15.3157L19.2109 16.5121L23.045 20.3462C23.27 20.5718 23.3964 20.8774 23.3964 21.196C23.3963 21.5146 23.27 21.8201 23.0449 22.0457Z" fill="#64748B"/>
</svg>
