<svg width="14" height="10" viewBox="0 0 14 10" fill="none" xmlns="http://www.w3.org/2000/svg">
<path fill-rule="evenodd" clip-rule="evenodd" d="M-0.000976562 4.99999C-0.000976562 4.86738 0.0517018 4.74021 0.14547 4.64644C0.239238 4.55267 0.366415 4.49999 0.499023 4.49999H12.292L9.14502 1.35399C9.05114 1.2601 8.99839 1.13277 8.99839 0.999991C8.99839 0.867215 9.05114 0.739877 9.14502 0.645991C9.23891 0.552104 9.36625 0.499359 9.49902 0.499359C9.6318 0.499359 9.75914 0.552104 9.85302 0.645991L13.853 4.64599C13.8996 4.69244 13.9365 4.74761 13.9617 4.80836C13.9869 4.8691 13.9999 4.93422 13.9999 4.99999C13.9999 5.06576 13.9869 5.13088 13.9617 5.19162C13.9365 5.25237 13.8996 5.30754 13.853 5.35399L9.85302 9.35399C9.75914 9.44788 9.6318 9.50062 9.49902 9.50062C9.36625 9.50062 9.23891 9.44788 9.14502 9.35399C9.05114 9.2601 8.99839 9.13277 8.99839 8.99999C8.99839 8.86722 9.05114 8.73988 9.14502 8.64599L12.292 5.49999H0.499023C0.366415 5.49999 0.239238 5.44731 0.14547 5.35354C0.0517018 5.25978 -0.000976562 5.1326 -0.000976562 4.99999Z" fill="#4974E6"/>
</svg>
