<svg width="22" height="16" viewBox="0 0 22 16" fill="none" xmlns="http://www.w3.org/2000/svg">
<path d="M5.06517 0.284316C4.97803 0.195407 4.87423 0.12454 4.75969 0.0757632C4.64515 0.0269867 4.52213 0.00125704 4.39764 4.49217e-05C4.27316 -0.0011672 4.14965 0.0221616 4.03419 0.0686986C3.91872 0.115236 3.81356 0.184069 3.72471 0.271264C2.71962 1.27052 1.92234 2.45889 1.37887 3.76784C0.835397 5.07679 0.556489 6.48039 0.558236 7.89768C0.556606 9.36934 0.857463 10.8256 1.44214 12.1762C2.02681 13.5267 2.88282 14.7427 3.95703 15.7486C4.13783 15.9157 4.37665 16.0058 4.62279 15.9997C4.86893 15.9936 5.103 15.8918 5.27531 15.716C5.68776 15.3035 5.63686 14.647 5.24007 14.2672C4.37797 13.4456 3.69193 12.4573 3.22365 11.3623C2.75538 10.2673 2.51464 9.08857 2.51607 7.89768C2.51607 5.48824 3.48324 3.3033 5.05212 1.71353C5.43063 1.32849 5.46979 0.688935 5.06517 0.284316Z" fill="white"/>
<path d="M7.36366 2.58412C7.19177 2.40724 6.95676 2.30573 6.71015 2.30181C6.46353 2.2979 6.22543 2.3919 6.048 2.56323C5.34165 3.26032 4.78102 4.09094 4.39874 5.00676C4.01646 5.92257 3.82017 6.90528 3.82129 7.89768C3.82129 10.1061 4.7741 12.0914 6.29208 13.4631C6.47122 13.6214 6.70439 13.7047 6.94326 13.6957C7.18213 13.6867 7.40838 13.5861 7.57511 13.4149C8.00322 12.9867 7.9236 12.3132 7.5216 11.9347C6.97054 11.4167 6.53159 10.7912 6.23189 10.0968C5.93218 9.40245 5.77808 8.65397 5.77913 7.89768C5.77913 6.39667 6.37561 5.03402 7.34539 4.03422C7.71868 3.65048 7.78003 2.99918 7.36366 2.58412Z" fill="white"/>
<path d="M14.6364 2.58412C14.8083 2.40724 15.0433 2.30573 15.2899 2.30181C15.5365 2.2979 15.7746 2.3919 15.952 2.56323C16.6584 3.26032 17.219 4.09094 17.6013 5.00676C17.9836 5.92257 18.1799 6.90528 18.1787 7.89768C18.1787 10.1061 17.2259 12.0914 15.708 13.4631C15.5288 13.6214 15.2956 13.7047 15.0568 13.6957C14.8179 13.6867 14.5917 13.5861 14.4249 13.4149C13.9968 12.9867 14.0764 12.3132 14.4784 11.9347C15.0295 11.4167 15.4684 10.7912 15.7681 10.0968C16.0679 9.40245 16.2219 8.65397 16.2209 7.89768C16.2209 6.39667 15.6244 5.03402 14.6546 4.03422C14.2813 3.65048 14.22 2.99918 14.6364 2.58412Z" fill="white"/>
<path d="M16.9349 0.284316C17.022 0.195407 17.1258 0.12454 17.2403 0.0757632C17.3549 0.0269867 17.4779 0.00125704 17.6024 4.49217e-05C17.7269 -0.0011672 17.8504 0.0221616 17.9658 0.0686986C18.0813 0.115236 18.1865 0.184069 18.2753 0.271264C19.2804 1.27052 20.0777 2.45889 20.6212 3.76784C21.1646 5.07679 21.4435 6.48039 21.4418 7.89768C21.4434 9.36934 21.1426 10.8256 20.5579 12.1762C19.9732 13.5267 19.1172 14.7427 18.043 15.7486C17.8622 15.9157 17.6234 16.0058 17.3772 15.9997C17.1311 15.9936 16.897 15.8918 16.7247 15.716C16.3123 15.3035 16.3632 14.647 16.7613 14.2672C17.6231 13.4455 18.3089 12.4571 18.777 11.3621C19.245 10.2672 19.4856 9.08848 19.484 7.89768C19.484 5.48824 18.5168 3.3033 16.9479 1.71353C16.5694 1.32849 16.5302 0.688935 16.9349 0.284316Z" fill="white"/>
<path d="M11 5.93985C10.4808 5.93985 9.98278 6.14612 9.61562 6.51328C9.24845 6.88045 9.04218 7.37843 9.04218 7.89768C9.04218 8.41693 9.24845 8.91491 9.61562 9.28208C9.98278 9.64924 10.4808 9.85551 11 9.85551C11.5193 9.85551 12.0172 9.64924 12.3844 9.28208C12.7516 8.91491 12.9578 8.41693 12.9578 7.89768C12.9578 7.37843 12.7516 6.88045 12.3844 6.51328C12.0172 6.14612 11.5193 5.93985 11 5.93985Z" fill="white"/>
</svg>
