<svg width="18" height="18" viewBox="0 0 18 18" fill="none" xmlns="http://www.w3.org/2000/svg">
<path d="M11.6668 17H6.33319M11.6668 17V9.53294C11.6668 9.39148 11.6106 9.25582 11.5106 9.15579C11.4106 9.05577 11.2749 8.99957 11.1334 8.99957H6.86655C6.7251 8.99957 6.58943 9.05577 6.48941 9.15579C6.38938 9.25582 6.33319 9.39148 6.33319 9.53294V17M11.6668 17H16.4671C16.6085 17 16.7442 16.9438 16.8442 16.8438C16.9442 16.7438 17.0004 16.6081 17.0004 16.4666V14.4221C17.0004 14.2806 16.9442 14.145 16.8442 14.0449C16.7442 13.9449 16.6085 13.8887 16.4671 13.8887H12.2002C12.0587 13.8887 11.9231 13.9449 11.823 14.0449C11.723 14.145 11.6668 14.2806 11.6668 14.4221V17ZM6.33319 17V12.6442C6.33319 12.5028 6.277 12.3671 6.17697 12.2671C6.07695 12.167 5.94128 12.1109 5.79983 12.1109H1.53293C1.39148 12.1109 1.25582 12.167 1.15579 12.2671C1.05577 12.3671 0.999573 12.5028 0.999573 12.6442V16.4666C0.999573 16.6081 1.05577 16.7438 1.15579 16.8438C1.25582 16.9438 1.39148 17 1.53293 17H6.33319ZM7.93861 2.87747L8.74665 1.16449C8.76847 1.11552 8.80401 1.07392 8.84897 1.04473C8.89393 1.01554 8.94639 1 9 1C9.05361 1 9.10607 1.01554 9.15103 1.04473C9.19599 1.07392 9.23153 1.11552 9.25335 1.16449L10.0623 2.87747L11.8686 3.15393C12.1006 3.18949 12.1931 3.48817 12.0251 3.65884L10.7183 4.99225L11.0268 6.87502C11.0659 7.11681 10.8241 7.30171 10.6161 7.18703L9 6.2981L7.38391 7.18703C7.17679 7.30082 6.93411 7.11681 6.97322 6.87502L7.28169 4.99225L5.97495 3.65884C5.80605 3.48817 5.89939 3.18949 6.13051 3.15393L7.93861 2.87747Z" stroke="white" stroke-width="1.5" stroke-linecap="round" stroke-linejoin="round"/>
</svg>
