<?xml version="1.0" encoding="utf-8"?>
<!-- Generator: Adobe Illustrator 22.0.1, SVG Export Plug-In . SVG Version: 6.00 Build 0)  -->
<svg version="1.1" id="Layer_1" xmlns="http://www.w3.org/2000/svg" xmlns:xlink="http://www.w3.org/1999/xlink" x="0px" y="0px"
	 viewBox="0 0 35 32" style="enable-background:new 0 0 35 32;" xml:space="preserve">
<style type="text/css">
	.st0{fill:url(#SVGID_1_);}
</style>
<linearGradient id="SVGID_1_" gradientUnits="userSpaceOnUse" x1="0.5" y1="18" x2="34.5" y2="18" gradientTransform="matrix(-1 0 0 1 35 -2)">
	<stop  offset="0" style="stop-color:#4776E6"/>
	<stop  offset="1" style="stop-color:#8E54E9"/>
</linearGradient>
<path class="st0" d="M1,17.1l17.5,14.7c0.1,0.1,0.3,0.2,0.5,0.2H23c0.3,0,0.5-0.4,0.2-0.6L7.1,17.7l27,0c0.2,0,0.4-0.2,0.4-0.4v-2.7
	c0-0.2-0.2-0.4-0.4-0.4h-27L23.3,0.6C23.5,0.4,23.4,0,23,0l-4.2,0c-0.1,0-0.2,0-0.2,0.1L1,14.9c-0.2,0.1-0.3,0.3-0.4,0.5
	c-0.1,0.2-0.1,0.4-0.1,0.6s0,0.4,0.1,0.6C0.7,16.8,0.8,17,1,17.1z"/>
</svg>
