<svg width="16" height="16" viewBox="0 0 21 16" fill="none" xmlns="http://www.w3.org/2000/svg">
<path d="M20.5 1.89838C19.7645 2.2191 18.9744 2.4358 18.1438 2.53375C19.0008 2.02909 19.642 1.23481 19.9477 0.29912C19.1425 0.769787 18.2612 1.10109 17.3422 1.27861C16.7242 0.629257 15.9057 0.198853 15.0136 0.0542238C14.1216 -0.090405 13.206 0.058833 12.409 0.478768C11.6119 0.898703 10.9781 1.56584 10.6058 2.3766C10.2336 3.18736 10.1437 4.09639 10.3503 4.96255C8.7187 4.88193 7.12259 4.46461 5.66553 3.73767C4.20847 3.01072 2.92301 1.9904 1.89258 0.742926C1.54025 1.34102 1.33766 2.03447 1.33766 2.77299C1.33727 3.43783 1.50364 4.09248 1.82201 4.67887C2.14038 5.26526 2.60091 5.76524 3.16273 6.13447C2.51117 6.11407 1.87397 5.94081 1.30419 5.62912V5.68113C1.30413 6.61359 1.63189 7.51736 2.23186 8.23908C2.83184 8.9608 3.66707 9.45602 4.59583 9.64071C3.9914 9.80169 3.35769 9.8254 2.74258 9.71006C3.00462 10.5124 3.51506 11.214 4.20243 11.7167C4.8898 12.2193 5.71969 12.4979 6.57593 12.5133C5.12242 13.6362 3.32735 14.2453 1.47948 14.2426C1.15215 14.2427 0.825091 14.2239 0.5 14.1863C2.37569 15.3731 4.55914 16.0029 6.78909 16.0005C14.3378 16.0005 18.4644 9.84788 18.4644 4.51181C18.4644 4.33845 18.46 4.16335 18.4521 3.98999C19.2548 3.41874 19.9476 2.71136 20.4982 1.90098L20.5 1.89838Z" fill="url(#paint0_linear)"/>
<defs>
<linearGradient id="paint0_linear" x1="0.5" y1="8.00049" x2="20.5" y2="8.00049" gradientUnits="userSpaceOnUse">
<stop stop-color="#4776E6"/>
<stop offset="1" stop-color="#8E54E9"/>
</linearGradient>
</defs>
</svg>
