<svg width="19" height="14" viewBox="0 0 19 14" fill="none" xmlns="http://www.w3.org/2000/svg">
<path d="M9.62616 5.94602C9.61128 5.92701 9.59227 5.91163 9.57056 5.90105C9.54885 5.89048 9.52502 5.88498 9.50088 5.88498C9.47673 5.88498 9.4529 5.89048 9.4312 5.90105C9.40949 5.91163 9.39048 5.92701 9.3756 5.94602L7.14833 8.76392C7.12997 8.78737 7.11858 8.81551 7.11545 8.84513C7.11233 8.87474 7.11761 8.90464 7.13068 8.9314C7.14375 8.95816 7.16408 8.98071 7.18936 8.99645C7.21463 9.0122 7.24383 9.02052 7.27361 9.02045H8.74321V13.8409C8.74321 13.9284 8.8148 14 8.9023 14H10.0955C10.183 14 10.2546 13.9284 10.2546 13.8409V9.02244H11.7281C11.8614 9.02244 11.935 8.86932 11.8534 8.76591L9.62616 5.94602Z" fill="#262643"/>
<path d="M15.4549 4.11051C14.5441 1.70824 12.2233 0 9.50486 0C6.7864 0 4.46566 1.70625 3.55487 4.10852C1.8506 4.55597 0.591797 6.10909 0.591797 7.95455C0.591797 10.152 2.37163 11.9318 4.56708 11.9318H5.36452C5.45202 11.9318 5.52361 11.8602 5.52361 11.7727V10.5795C5.52361 10.492 5.45202 10.4205 5.36452 10.4205H4.56708C3.89691 10.4205 3.26651 10.154 2.79719 9.67074C2.32986 9.18949 2.08129 8.54119 2.10316 7.86903C2.12106 7.34403 2.30004 6.85085 2.62418 6.43523C2.95629 6.01165 3.42163 5.70341 3.93867 5.56619L4.69237 5.36932L4.96879 4.64148C5.13981 4.18807 5.37844 3.76449 5.67873 3.38068C5.97518 3.00027 6.32634 2.66587 6.72077 2.38835C7.5381 1.81364 8.5006 1.50937 9.50486 1.50937C10.5091 1.50937 11.4716 1.81364 12.289 2.38835C12.6847 2.66676 13.0347 3.00085 13.331 3.38068C13.6313 3.76449 13.8699 4.19006 14.0409 4.64148L14.3154 5.36733L15.0671 5.56619C16.1449 5.85653 16.8986 6.83693 16.8986 7.95455C16.8986 8.61278 16.6421 9.23324 16.1767 9.69858C15.9485 9.92812 15.6771 10.1101 15.378 10.234C15.079 10.3579 14.7584 10.4213 14.4347 10.4205H13.6373C13.5498 10.4205 13.4782 10.492 13.4782 10.5795V11.7727C13.4782 11.8602 13.5498 11.9318 13.6373 11.9318H14.4347C16.6301 11.9318 18.41 10.152 18.41 7.95455C18.41 6.11108 17.1551 4.55994 15.4549 4.11051Z" fill="#262643"/>
</svg>
