<svg width="12" height="11" viewBox="0 0 12 11" fill="none" xmlns="http://www.w3.org/2000/svg">
<circle cx="5.70569" cy="5.5" r="5.5" fill="white"/>
<path fill-rule="evenodd" clip-rule="evenodd" d="M5.70569 0C2.66819 0 0.205688 2.4625 0.205688 5.5C0.205688 8.5375 2.66819 11 5.70569 11C8.74319 11 11.2057 8.5375 11.2057 5.5C11.2057 2.4625 8.74319 0 5.70569 0ZM8.08969 4.57C8.13359 4.51982 8.16701 4.46137 8.18798 4.39808C8.20896 4.3348 8.21706 4.26796 8.21182 4.20149C8.20659 4.13503 8.18811 4.07028 8.15748 4.01106C8.12685 3.95185 8.08468 3.89935 8.03346 3.85667C7.98224 3.81399 7.92301 3.78198 7.85924 3.76253C7.79547 3.74308 7.72845 3.73658 7.66213 3.74341C7.59581 3.75025 7.53153 3.77027 7.47306 3.80232C7.4146 3.83436 7.36313 3.87777 7.32169 3.93L5.17169 6.5095L4.05919 5.3965C3.96489 5.30542 3.83859 5.25502 3.70749 5.25616C3.57639 5.2573 3.45098 5.30989 3.35828 5.40259C3.26558 5.49529 3.21299 5.6207 3.21185 5.7518C3.21071 5.8829 3.26111 6.0092 3.35219 6.1035L4.85219 7.6035C4.90132 7.6526 4.96014 7.69092 5.0249 7.71603C5.08966 7.74114 5.15894 7.75248 5.22832 7.74932C5.29771 7.74617 5.36568 7.7286 5.42789 7.69772C5.49011 7.66685 5.54521 7.62335 5.58969 7.57L8.08969 4.57Z" fill="#4974E6"/>
</svg>
