<svg width="19" height="19" viewBox="0 0 19 19" fill="none" xmlns="http://www.w3.org/2000/svg">
<path d="M1.80518 3.34497C1.80518 2.81454 2.01589 2.30583 2.39096 1.93076C2.76603 1.55568 3.27474 1.34497 3.80518 1.34497H13.8052C14.0704 1.34497 14.3247 1.45033 14.5123 1.63786C14.6998 1.8254 14.8052 2.07975 14.8052 2.34497V5.34497L16.8052 9.34497V6.34497C16.8052 6.07975 16.6998 5.8254 16.5123 5.63786C16.3247 5.45033 16.0704 5.34497 15.8052 5.34497H3.80518C3.27474 5.34497 2.76603 5.13426 2.39096 4.75918C2.01589 4.38411 1.80518 3.8754 1.80518 3.34497ZM1.80518 3.34497V15.345C1.80518 15.8754 2.01589 16.3841 2.39096 16.7592C2.76603 17.1343 3.27474 17.345 3.80518 17.345H15.8052C16.0704 17.345 16.3247 17.2396 16.5123 17.0521C16.6998 16.8645 16.8052 16.6102 16.8052 16.345V13.345M17.8052 9.34497V13.345H13.8052C13.2747 13.345 12.766 13.1343 12.391 12.7592C12.0159 12.3841 11.8052 11.8754 11.8052 11.345C11.8052 10.8145 12.0159 10.3058 12.391 9.93076C12.766 9.55568 13.2747 9.34497 13.8052 9.34497H17.8052Z" stroke="white" stroke-width="2" stroke-linecap="round" stroke-linejoin="round"/>
</svg>
